<?xml version="1.0" encoding="utf-8"?>
<!-- Generator: Adobe Illustrator 15.1.0, SVG Export Plug-In . SVG Version: 6.00 Build 0)  -->
<!DOCTYPE svg PUBLIC "-//W3C//DTD SVG 1.1//EN" "http://www.w3.org/Graphics/SVG/1.1/DTD/svg11.dtd">
<svg version="1.1" id="Layer_1" xmlns="http://www.w3.org/2000/svg" xmlns:xlink="http://www.w3.org/1999/xlink" x="0px" y="0px"
	 width="198px" height="150px" viewBox="0 0 198 150" enable-background="new 0 0 198 150" xml:space="preserve">
<ellipse fill="#FFFFFF" cx="99" cy="75" rx="99" ry="75"/>
<ellipse transform="matrix(1 -0.0096 0.0096 1 -0.733 0.9691)" fill="#FFCA05" cx="100.465" cy="76.754" rx="67.827" ry="46.107"/>
<g>
	<g>
		<polygon fill="#FFFFFF" points="22.075,81.351 22.16,76.127 24.545,76.165 24.406,84.703 22.639,84.676 13.406,79.133 
			13.316,84.596 10.931,84.556 11.07,76.054 13.237,76.088 		"/>
		<polygon points="22.075,81.351 22.412,81.355 22.491,76.469 24.203,76.497 24.074,84.361 22.735,84.339 13.078,78.543 
			12.984,84.252 11.273,84.225 11.402,76.396 13.141,76.424 22.402,81.939 22.412,81.355 22.075,81.351 22.248,81.062 
			13.332,75.753 10.739,75.711 10.589,84.889 13.647,84.938 13.733,79.723 22.543,85.01 24.737,85.047 24.889,75.833 21.829,75.783 
			21.738,81.346 22.075,81.351 22.248,81.062 		"/>
		<path fill="#FFFFFF" d="M17.856,74.43c-4.229-0.855-6.305-4.655-5.562-8.331c0.808-3.999,4.509-6.316,8.256-5.559
			c3.749,0.756,6.263,4.311,5.448,8.344c-0.819,4.052-4.589,6.262-8.124,5.549L17.856,74.43z M18.287,71.749
			c2.41,0.486,4.865-0.82,5.384-3.39c0.541-2.677-1.462-4.716-3.639-5.156c-2.213-0.448-4.85,0.655-5.395,3.35
			c-0.535,2.641,1.311,4.723,3.631,5.192L18.287,71.749z"/>
		<path d="M17.856,74.43l0.067-0.331c-3.482-0.709-5.404-3.46-5.44-6.456c-0.005-0.489,0.042-0.985,0.142-1.478
			c0.671-3.313,3.401-5.398,6.443-5.432c0.466-0.004,0.939,0.041,1.414,0.136c3.096,0.628,5.299,3.243,5.331,6.433
			c0.005,0.492-0.042,0.999-0.146,1.515c-0.681,3.363-3.478,5.378-6.403,5.41c-0.441,0.004-0.885-0.038-1.325-0.126h0l-0.019-0.004
			l0,0l0.003,0.001L17.856,74.43l-0.064,0.331l0.018,0.003h-0.001l-0.001-0.001c0.487,0.098,0.978,0.145,1.465,0.14
			c3.229-0.028,6.315-2.273,7.058-5.951c0.113-0.561,0.164-1.114,0.159-1.655c-0.031-3.505-2.472-6.403-5.872-7.087
			c-0.52-0.105-1.041-0.154-1.554-0.149c-3.348,0.029-6.37,2.351-7.098,5.972c-0.11,0.539-0.161,1.081-0.155,1.617
			c0.025,3.28,2.19,6.351,5.981,7.111l0.001,0.001h0L17.856,74.43z M18.287,71.749l-0.067,0.33c0.372,0.075,0.747,0.11,1.116,0.107
			c1.087-0.011,2.132-0.356,2.968-0.998c0.837-0.642,1.461-1.586,1.698-2.762c0.068-0.337,0.098-0.667,0.095-0.985
			c-0.011-1.201-0.503-2.25-1.243-3.035c-0.74-0.787-1.726-1.326-2.756-1.534c-0.358-0.072-0.726-0.107-1.093-0.104
			c-1.034,0.011-2.077,0.318-2.934,0.937c-0.856,0.617-1.519,1.555-1.766,2.781c-0.07,0.347-0.102,0.688-0.098,1.02
			c0.01,1.176,0.47,2.218,1.195,3.009c0.726,0.792,1.714,1.342,2.799,1.561l0.001,0l0.019,0.003h-0.001l-0.001,0L18.287,71.749
			l0.063-0.332l-0.018-0.003l0.003,0l0,0c-0.949-0.192-1.812-0.673-2.436-1.355c-0.623-0.682-1.008-1.556-1.019-2.56
			c-0.003-0.284,0.025-0.577,0.085-0.88c0.216-1.062,0.77-1.838,1.5-2.369c0.729-0.527,1.64-0.799,2.545-0.808
			c0.322-0.003,0.643,0.027,0.954,0.09c0.892,0.18,1.76,0.653,2.398,1.334c0.639,0.682,1.05,1.562,1.06,2.58
			c0.003,0.271-0.023,0.552-0.082,0.845c-0.208,1.021-0.735,1.812-1.447,2.361c-0.713,0.547-1.614,0.849-2.563,0.858
			c-0.323,0.003-0.65-0.028-0.977-0.095h-0.001H18.35L18.287,71.749z"/>
		<path fill="#FFFFFF" d="M21.338,58.358c-3.899-1.853-4.993-6.042-3.381-9.431c1.75-3.685,5.902-5.038,9.356-3.397
			c3.454,1.643,5.034,5.701,3.267,9.417c-1.774,3.733-5.969,4.965-9.226,3.418L21.338,58.358z M22.403,55.86
			c2.221,1.056,4.919,0.382,6.045-1.986c1.173-2.467-0.278-4.931-2.284-5.885c-2.039-0.969-4.866-0.538-6.045,1.946
			c-1.157,2.435,0.129,4.901,2.268,5.917L22.403,55.86z"/>
		<path d="M21.338,58.358l0.144-0.305c-2.605-1.242-3.877-3.539-3.905-5.921c-0.009-1.033,0.218-2.08,0.684-3.06
			c1.192-2.504,3.526-3.867,5.96-3.892c0.989-0.01,1.995,0.204,2.948,0.656c2.346,1.116,3.778,3.393,3.803,5.89
			c0.01,1.008-0.209,2.053-0.696,3.078c-1.207,2.538-3.569,3.852-5.951,3.876c-0.966,0.01-1.933-0.195-2.826-0.62h-0.001
			l-0.016-0.007h0.001l0,0L21.338,58.358l-0.144,0.305l0.017,0.008h-0.002c0.987,0.469,2.057,0.694,3.122,0.684
			c2.624-0.023,5.237-1.489,6.554-4.262c0.529-1.114,0.772-2.263,0.762-3.374c-0.026-2.754-1.613-5.27-4.188-6.493
			c-1.045-0.497-2.153-0.732-3.244-0.721c-2.682,0.022-5.265,1.542-6.562,4.277c-0.509,1.069-0.759,2.219-0.749,3.354
			c0.021,2.621,1.457,5.183,4.29,6.525h0.001L21.338,58.358z M22.403,55.86l-0.145,0.304c0.74,0.352,1.532,0.524,2.309,0.516
			c1.708-0.012,3.358-0.914,4.187-2.662c0.318-0.668,0.459-1.346,0.452-1.997c-0.023-1.923-1.294-3.573-2.896-4.338
			c-0.718-0.341-1.522-0.519-2.329-0.511c-1.642,0.01-3.318,0.823-4.167,2.616c-0.326,0.687-0.474,1.384-0.467,2.055
			c0.021,1.876,1.22,3.515,2.896,4.312l0.145-0.305l-0.148,0.303l0.016,0.007l0.003,0.001l0,0L22.403,55.86l0.148-0.303
			l-0.015-0.008l-0.002-0.001h-0.002c-1.471-0.699-2.499-2.128-2.511-3.709c-0.005-0.569,0.118-1.161,0.402-1.76
			c0.736-1.541,2.126-2.212,3.565-2.232c0.702-0.006,1.408,0.15,2.032,0.446c1.395,0.661,2.501,2.12,2.511,3.735
			c0.005,0.548-0.111,1.121-0.387,1.7c-0.72,1.509-2.102,2.26-3.583,2.277c-0.673,0.006-1.364-0.142-2.013-0.451L22.403,55.86
			l0.148-0.303L22.403,55.86z"/>
		<polygon fill="#FFFFFF" points="29.684,35.673 27.733,37.838 25.961,36.242 31.665,29.912 33.438,31.508 31.5,33.658 
			39.738,41.08 37.921,43.096 		"/>
		<polygon points="29.684,35.673 29.433,35.448 27.708,37.362 26.438,36.216 31.69,30.388 32.962,31.532 31.023,33.683 
			39.261,41.105 37.896,42.62 29.66,35.197 29.433,35.448 29.684,35.673 29.458,35.924 37.946,43.573 40.214,41.056 31.976,33.634 
			33.914,31.482 31.641,29.435 25.485,36.266 27.758,38.314 29.934,35.899 29.684,35.673 29.458,35.924 		"/>
		<path fill="#FFFFFF" d="M42.829,37.944l-2.332,1.805l-3.923-14l1.887-1.46l12.463,7.395l-2.347,1.816l-2.393-1.487l-4.207,3.252
			L42.829,37.944z M39.385,27.626l1.83,5.49l3.067-2.373L39.385,27.626z"/>
		<path d="M42.829,37.944l-0.206-0.267l-1.937,1.499l-3.726-13.3l1.525-1.181l11.839,7.025l-1.77,1.369l-2.394-1.487l-4.577,3.54
			l0.923,2.904L42.829,37.944l-0.206-0.267L42.829,37.944l0.322-0.103l-0.781-2.454l3.834-2.965l2.394,1.487l2.924-2.262
			l-13.087-7.766l-2.248,1.74l4.118,14.7l2.916-2.256l-0.071-0.224L42.829,37.944z M39.385,27.626l-0.32,0.106l1.98,5.941
			l3.822-2.957l-6.103-3.886l0.3,0.901L39.385,27.626l-0.181,0.284l4.492,2.86l-2.311,1.789l-1.68-5.04L39.385,27.626l-0.181,0.284
			L39.385,27.626z"/>
		
			<rect x="48.568" y="18.204" transform="matrix(-0.8768 0.4809 -0.4809 -0.8768 105.6926 22.8053)" fill="#FFFFFF" width="2.714" height="13.478"/>
		<polygon points="45.495,19.686 45.657,19.981 47.741,18.838 53.897,30.065 52.109,31.045 45.791,19.523 45.495,19.686 
			45.657,19.981 45.495,19.686 45.2,19.848 51.841,31.961 54.813,30.331 48.008,17.923 45.038,19.552 45.2,19.848 		"/>
		<path fill="#FFFFFF" d="M54.975,15.119c2.113-0.846,3.079-0.881,4.03-0.613c1.211,0.378,2.206,1.393,2.7,2.626
			c0.494,1.234,0.484,2.728-0.053,3.689c-0.566,1.031-1.291,1.674-3.117,2.405l-1.538,0.615l1.719,4.293l-2.519,1.009l-5.008-12.509
			L54.975,15.119z M56.11,21.628l1.488-0.597c0.575-0.229,1.112-0.503,1.51-0.978c0.362-0.419,0.51-1.125,0.192-1.92
			c-0.318-0.794-0.9-1.169-1.485-1.209c-0.615-0.068-1.211,0.111-1.835,0.363l-1.387,0.554L56.11,21.628z"/>
		<path d="M54.975,15.119l0.126,0.313c1.346-0.54,2.194-0.732,2.84-0.738c0.357-0.003,0.658,0.047,0.972,0.135l0.091-0.324
			l-0.101,0.321c1.097,0.339,2.028,1.28,2.487,2.43c0.217,0.542,0.331,1.146,0.336,1.719c0.007,0.641-0.124,1.243-0.37,1.681l0,0
			l-0.001,0.001c-0.27,0.488-0.558,0.861-1,1.213c-0.442,0.353-1.049,0.684-1.947,1.042l-1.852,0.742l1.72,4.293l-1.892,0.758
			l-4.759-11.883l3.474-1.391L54.975,15.119l-0.126-0.312l-4.1,1.641l5.26,13.136l3.145-1.26l-1.719-4.294l1.226-0.49
			c0.93-0.373,1.597-0.729,2.115-1.14c0.518-0.41,0.875-0.874,1.172-1.417l-0.001,0.002c0.32-0.575,0.461-1.283,0.456-2.016
			c-0.006-0.658-0.134-1.338-0.385-1.964c-0.529-1.316-1.585-2.406-2.911-2.822l-0.004-0.001l-0.005-0.001
			c-0.359-0.101-0.734-0.164-1.161-0.16c-0.779,0.008-1.704,0.232-3.086,0.786L54.975,15.119z M56.11,21.628l0.125,0.312
			l1.487-0.595c0.591-0.237,1.188-0.533,1.643-1.074l-0.258-0.218l0.255,0.221c0.286-0.331,0.454-0.791,0.448-1.306
			c-0.003-0.305-0.066-0.629-0.198-0.96c-0.352-0.895-1.059-1.377-1.775-1.42l-0.023,0.336l0.038-0.335
			c-0.111-0.013-0.221-0.018-0.33-0.017c-0.583,0.007-1.129,0.185-1.668,0.4l-1.699,0.681l1.767,4.413l0.313-0.125L56.11,21.628
			l0.312-0.126l-1.39-3.473l1.072-0.431c0.514-0.206,0.981-0.349,1.425-0.352c0.083,0,0.167,0.003,0.249,0.012l0.007,0.001h0.006
			c0.455,0.037,0.911,0.305,1.195,0.999c0.104,0.259,0.149,0.5,0.151,0.716c0.003,0.366-0.114,0.663-0.285,0.859l0,0.001
			l-0.001,0.001c-0.341,0.407-0.819,0.659-1.378,0.883l-1.488,0.595L56.11,21.628l0.312-0.126L56.11,21.628z"/>
		
			<rect x="64.393" y="11.825" transform="matrix(-0.9623 0.2718 -0.2718 -0.9623 134.0692 18.5498)" fill="#FFFFFF" width="2.714" height="13.473"/>
		<polygon points="62.611,12.448 62.703,12.772 64.99,12.126 68.472,24.442 66.51,24.996 62.936,12.356 62.611,12.448 
			62.703,12.772 62.611,12.448 62.287,12.54 66.044,25.828 69.304,24.907 65.455,11.294 62.195,12.216 62.287,12.54 		"/>
		<polygon fill="#FFFFFF" points="78.801,18.445 77.159,9.252 79.726,8.81 82.016,22.084 79.648,22.493 71.946,14.364 
			73.585,23.539 71.019,23.982 68.729,10.708 71.114,10.296 		"/>
		<polygon points="78.801,18.445 79.134,18.387 77.552,9.528 79.45,9.2 81.626,21.81 79.769,22.129 71.416,13.314 73.193,23.265 
			71.294,23.592 69.119,10.982 70.994,10.659 79.332,19.5 79.134,18.387 78.801,18.445 79.046,18.215 71.236,9.933 68.34,10.433 
			70.745,24.371 73.976,23.813 72.477,15.414 79.527,22.856 82.405,22.359 80,8.421 76.769,8.979 78.469,18.505 78.801,18.445 
			79.046,18.215 		"/>
		<path fill="#FFFFFF" d="M93.852,12.064c-0.29-0.406-0.634-0.774-1.048-1.065c-0.715-0.516-1.584-0.823-2.622-0.779
			c-2.163,0.094-4.292,1.827-4.166,4.755c0.132,3.037,2.421,4.541,4.567,4.447c1.072-0.046,1.969-0.396,2.638-0.936
			c0.686-0.54,1.128-1.288,1.293-2.096l-5.02,0.218L89.4,14.426l8.147-0.355c0.075,0.89,0.007,2.259-0.453,3.41
			c-1.133,2.854-3.97,4.218-6.39,4.323c-4.02,0.175-7.228-2.802-7.399-6.711c-0.175-4.02,2.899-7.087,6.826-7.258
			c3.038-0.133,5.795,1.679,6.775,4.097L93.852,12.064z"/>
		<path d="M93.852,12.064l0.275-0.196c-0.308-0.431-0.678-0.827-1.129-1.145l-0.194,0.275L93,10.725
			c-0.729-0.527-1.625-0.858-2.666-0.846l-0.167,0.005c-1.14,0.048-2.267,0.519-3.112,1.357c-0.845,0.838-1.397,2.052-1.381,3.542
			c0.001,0.068,0.002,0.137,0.006,0.207c0.066,1.563,0.686,2.778,1.581,3.582c0.894,0.804,2.047,1.202,3.179,1.192l0.158-0.005
			c1.137-0.049,2.106-0.421,2.835-1.008l-0.211-0.263l0.208,0.266c0.751-0.591,1.235-1.411,1.416-2.295l0.086-0.423l-5.114,0.222
			l-0.065-1.508l7.811-0.34l-0.015-0.337L97.211,14.1c0.015,0.164,0.022,0.347,0.025,0.543c0.009,0.812-0.107,1.847-0.454,2.713
			l0-0.003l-0.002,0.003c-0.538,1.354-1.475,2.351-2.576,3.03c-1.099,0.679-2.362,1.03-3.514,1.081
			c-0.084,0.003-0.167,0.006-0.251,0.006c-3.721,0.032-6.634-2.749-6.796-6.395c-0.003-0.082-0.006-0.162-0.006-0.243
			c-0.032-3.708,2.83-6.497,6.51-6.664c0.079-0.004,0.155-0.006,0.232-0.007c2.803-0.031,5.325,1.684,6.215,3.893l0.312-0.126
			l-0.015-0.338l-3.056,0.134L93.852,12.064l0.275-0.196L93.852,12.064l0.015,0.336l3.533-0.154l-0.179-0.442
			c-1.018-2.495-3.77-4.338-6.847-4.313c-0.084,0.001-0.171,0.004-0.256,0.008c-4.008,0.168-7.197,3.264-7.156,7.343
			c0.001,0.088,0.004,0.177,0.007,0.266c0.171,4.001,3.405,7.083,7.476,7.041c0.091-0.001,0.183-0.003,0.274-0.008
			c1.266-0.056,2.632-0.437,3.84-1.18c1.206-0.742,2.253-1.854,2.848-3.355l-0.002,0.004l0.002-0.004
			c0.394-0.985,0.51-2.089,0.502-2.968c-0.002-0.211-0.012-0.412-0.027-0.594l-0.027-0.322l-8.808,0.384l0.124,2.856l5.357-0.233
			l-0.015-0.336l-0.331-0.067c-0.15,0.733-0.548,1.409-1.172,1.898l-0.002,0.003h-0.001c-0.609,0.491-1.433,0.815-2.44,0.861
			l-0.136,0.002c-0.97,0.01-1.961-0.333-2.72-1.018c-0.758-0.686-1.296-1.707-1.359-3.111c-0.002-0.062-0.003-0.122-0.004-0.182
			c-0.012-1.321,0.464-2.341,1.183-3.057c0.718-0.715,1.689-1.121,2.665-1.164l0.145-0.004c0.896-0.007,1.636,0.268,2.265,0.719
			l0.002,0.001c0.377,0.266,0.696,0.605,0.969,0.987l0.106,0.149l0.182-0.009L93.852,12.064z"/>
		<g>
			<path d="M111.204,17.896c0.146-0.275,0.183-0.596,0.197-0.896c0.036-0.679-0.058-1.403-0.138-2.031l0.905,0.048
				c0.175,0.613,0.306,1.358,0.27,2.057c-0.045,0.829-0.233,1.538-0.49,2.091l1.608,2.467l-2.168-0.114l-0.561-0.843
				c-1.023,0.778-2.098,1.042-3.511,0.966c-2.45-0.129-4.477-2.204-4.343-4.73c0.118-2.224,1.132-3.135,2.932-4.287
				c-0.401-0.607-0.971-1.298-0.933-2.015c0.074-1.395,1.357-2.404,2.732-2.332c1.357,0.073,2.503,0.947,2.424,2.436
				c-0.062,1.149-0.989,1.876-1.85,2.436L111.204,17.896z M106.743,13.954c-1.037,0.663-1.846,1.641-1.928,3.188
				c-0.098,1.847,1.223,3.335,2.938,3.426c1.056,0.056,1.691-0.193,2.55-0.678L106.743,13.954z M107.325,9.05
				c-0.415-0.022-1.072,0.265-1.045,0.813l1.095,1.798c0.484-0.22,1.124-0.848,1.153-1.394C108.564,9.57,108.021,9.087,107.325,9.05
				z"/>
			<path d="M119.241,22.488l2.611-11.955l2.012,0.439l4.454,9.595l0.038,0.008l1.799-8.229l0.958,0.21l-2.612,11.955l-0.996-0.218
				l-5.186-11.126l-0.036-0.008l-2.085,9.538L119.241,22.488z"/>
			<path d="M130.895,25.318l3.71-11.66l2.193,0.698l-3.707,11.659L130.895,25.318z"/>
			<path d="M147.772,25.607l-1.793,4.039c-1.871,0.492-3.856,0.354-5.703-0.466c-3.159-1.403-4.523-5.17-3.135-8.294
				c1.587-3.573,5.307-4.875,8.584-3.419c1.762,0.782,2.936,2.419,3.288,4.229l-0.819,0.173c-0.346-1.414-0.839-2.811-2.322-3.47
				c-2.729-1.211-4.998,0.178-6.432,3.406c-1.219,2.743-0.999,5.693,1.641,6.865c0.984,0.438,2.154,0.502,2.732,0.18l1.854-4.178
				L147.772,25.607z"/>
			<path d="M146.644,31.833l6.891-10.109l1.902,1.297l-3.03,4.446l4.149,2.83l3.031-4.446l1.904,1.297l-6.893,10.109l-1.902-1.297
				l3.317-4.868l-4.151-2.829l-3.316,4.867L146.644,31.833z"/>
			<path d="M157.101,39.649l7.91-8.271l-1.762-1.684l0.549-0.573l5.186,4.959l-0.549,0.574l-1.76-1.684l-7.91,8.271L157.101,39.649z
				"/>
			<path d="M166.556,47c-0.523,1.085-0.627,1.953,0.015,2.977c0.562,0.896,1.885,1.404,2.957,0.731
				c3.007-1.886-1.466-5.856,2.244-8.184c1.664-1.043,3.913-0.514,5.127,1.422c0.804,1.279,0.911,3.018,0.101,4.283l-0.854-0.401
				c0.582-0.922,0.83-1.947,0.139-3.05c-0.673-1.072-1.88-1.185-2.872-0.562c-2.431,1.525,1.642,5.746-2.101,8.094
				c-1.904,1.194-4.212,0.323-5.305-1.421c-0.883-1.408-1.18-2.804-0.432-4.277L166.556,47z"/>
			<path d="M172.248,63.093l-0.916-2.176l2.437-2.439l-1.635-3.88l-3.418,0.107l-0.418-0.992l13.525-0.287l0.016,0.035
				L172.248,63.093z M177.819,54.477l-4.83,0.108l1.385,3.289L177.819,54.477z"/>
			<path d="M172.215,63.509l11.826-3.134l1.8,6.789l-0.767,0.203l-1.21-4.563l-4.562,1.21l1.104,4.161l-0.766,0.203l-1.104-4.162
				l-5.731,1.519L172.215,63.509z"/>
			<path d="M175.245,78.883l-0.346-2.335l2.967-1.757l-0.616-4.166l-3.337-0.748l-0.158-1.064l13.172,3.091l0.006,0.038
				L175.245,78.883z M182.788,71.925l-4.707-1.099l0.522,3.531L182.788,71.925z"/>
			<path d="M175.19,79.171l12.233-0.39l0.168,5.285c0.071,2.228-1.53,3.525-3.495,3.588c-1.867,0.061-2.725-1.272-3.009-3.098
				l-5.616,3.431l-0.08-2.53l6.16-3.541l0.006,0.15c0.064,2.039,0.898,3.336,2.73,3.277c1.359-0.044,2.717-0.748,2.645-2.994
				l-0.039-1.246l-11.63,0.371L175.19,79.171z"/>
			<path d="M175.331,88.777l12.229,0.477l-0.09,2.302l-12.229-0.476L175.331,88.777z"/>
		</g>
	</g>
	<g>
		<g>
			<path d="M99.412,25.008c0.099,0.004,0.295,0.014,0.392,0.018c0.623,0.756,0.918,1.73,1.655,2.401
				c0.387,0.03,0.775,0.054,1.164,0.096c0.521,0.01,0.908,0.475,1.447,0.412c1.467-0.038,2.818,0.577,4.223,0.878
				c0.944-0.044,1.749-0.638,2.666-0.804c0.894-0.264,1.816-0.014,2.703,0.158c0.097,0.285,0.256,0.542,0.44,0.779
				c-1.331,0.292-2.72,0.085-4.036,0.447c0.836,0.233,1.717,0.137,2.562,0.329c1.131,0.155,2.28-0.047,3.411,0.118
				c0.917,0.146,1.855-0.047,2.77,0.116c0.411,0.16,0.757,0.464,1.188,0.586c4.043,0.909,8.192,1.38,12.164,2.613
				c0.328,0.088,0.623,0.255,0.916,0.426c-0.611,0.499-1.265-0.18-1.932-0.164c0.532,0.19,1.128,0.272,1.545,0.693
				c0.795,0.419,1.712,0.599,2.483,1.074c0.556,0.361,1.267,0.511,1.652,1.092c0.851,0.983,2.284,0.619,3.372,1.116
				c0.771,0.242,1.252,0.923,1.887,1.377c0.654,0.673,1.5,1.098,2.322,1.531c1.043,0.634,2.094,1.269,3.178,1.833
				c0.732-0.054,1.493,0.019,2.127,0.425c-0.115,0.092-0.227,0.187-0.336,0.281c-0.304-0.151-0.611-0.293-0.924-0.425
				c0.396,0.702,1.148,1.026,1.807,1.42c2.004,1.364,4.102,2.639,5.795,4.394c-0.166,0.16-0.331,0.322-0.493,0.488
				c-0.651-0.592-1.286-1.201-1.918-1.812c-0.403-0.326-0.978-0.244-1.39-0.553c-0.324-0.158-0.485-0.485-0.691-0.754
				c-0.438-0.398-1.014-0.587-1.533-0.85c0.229,0.148,0.467,0.287,0.705,0.426c0.114,0.33,0.115,0.758,0.443,0.967
				c0.573,0.457,1.18,0.874,1.773,1.305c0.635,0.447,1.416,0.582,2.098,0.935c0.488,0.328,0.915,0.746,1.445,1.006
				c0.597,0.3,1.23,0.556,1.745,0.996c0.567,0.514,1.007,1.148,1.581,1.655c0.453,0.416,0.851,0.937,0.93,1.569
				c-0.254,0-0.506,0.001-0.755-0.001c0.509,0.65,1.021,1.299,1.437,2.014c0.541,0.473,1.101,0.938,1.492,1.551
				c0.54,0.767,1.09,1.53,1.577,2.332c0.336,0.587,0.827,1.047,1.284,1.535c-0.279,0.01-0.553-0.059-0.818-0.132
				c-0.262,0.642,0.491,1.225,0.179,1.843c-0.486-0.913-1.126-1.732-1.847-2.473c-0.913-1.419-2.173-2.637-2.74-4.256
				c-0.022-0.303-0.098-0.6-0.307-0.832c-0.928-1.211-2.008-2.3-3.146-3.315c-0.526-0.388-0.994-0.847-1.447-1.315
				c-0.205-0.241-0.6-0.021-0.807-0.247c-0.82-0.769-1.535-1.649-2.421-2.349c-0.349-0.237-0.648-0.531-0.953-0.818
				c-1.278-1.172-2.745-2.109-4.14-3.128c-0.586-0.519-1.264-0.912-1.934-1.307c-1.73-1.206-3.602-2.193-5.393-3.302
				c-0.773-0.481-1.72-0.437-2.574-0.662c-0.235-0.662-0.918-0.905-1.543-1.062c-1.096,0.396-2.035-0.471-2.999-0.85
				c-0.462-0.369-1.024-0.668-1.317-1.202c0.139-0.021,0.416-0.062,0.555-0.083c-1.664-0.583-3.392-0.961-5.07-1.503
				c-0.999-0.189-2.029-0.496-3.031-0.146c-1.881-0.357-3.685-1.085-5.583-1.382c-3.407-0.58-6.846-0.995-10.296-1.2
				c-2.047-0.034-4.093-0.28-6.138-0.092c-0.162,0.89-0.214,1.812-0.601,2.64c-0.238,0.861-0.779,1.582-1.271,2.311
				c-0.313,0.134-0.665,0.534-1.014,0.334c-0.188-0.33-0.291-0.697-0.412-1.053c-0.622-0.226-1.282-0.281-1.935-0.188
				c0.196-0.955,0.396-1.912,0.694-2.842c0.122-0.17,0.246-0.34,0.369-0.51c0.166-0.257,0.302-0.533,0.435-0.81
				c-1.337-0.217-2.692-0.144-4.041-0.167c-0.872-0.021-1.717,0.329-2.59,0.179l-0.131-0.036c-0.317-0.15-0.641-0.339-1.004-0.298
				c-1.048,0.047-2.039,0.425-3.057,0.629c-0.067,0.013-0.196,0.035-0.262,0.046c-0.562,0.088-1.178,0.133-1.668-0.212
				c-0.945-0.628-2.036-0.964-3.024-1.509c0.236-0.14,0.458-0.334,0.746-0.354c1.371-0.228,2.702-0.662,4.079-0.859
				c0.04-0.227-0.108-0.532,0.08-0.706c0.971-0.19,1.96-0.311,2.922-0.557c0.25-0.015,0.5,0.013,0.755,0.009
				c0.442,0.012,0.904-0.058,1.238-0.378c0.344-0.326,0.845-0.173,1.273-0.212c-0.337,0.101-0.868-0.029-1.027,0.372
				c0.663,0.201,1.367,0.156,1.999-0.125c0.254-0.153,0.508,0.004,0.753,0.095c0.218,0.079,0.443,0.151,0.668,0.222
				c-0.688-0.045-1.381,0.041-1.999,0.359c-1.271,0.295-2.53,0.655-3.688,1.262c0.806,0.022,1.618,0.048,2.423-0.034
				c1.098-0.196,2.154-0.612,3.278-0.678c1.036-0.019,2.058-0.189,3.092-0.275c-0.003-0.221-0.003-0.443-0.003-0.663
				c-0.611,0.345-1.296,0.604-1.99,0.343c0.3-0.062,0.599-0.125,0.898-0.191c-0.316-0.146-0.646-0.255-0.979-0.361
				c0.693-0.042,1.397,0.016,2.071-0.187c0.063-0.021,0.188-0.057,0.25-0.075C99.421,26.171,99.441,25.589,99.412,25.008z
				 M101.931,29.187c0.225,0.223,0.549,0.263,0.846,0.323c0.011-0.097,0.033-0.293,0.045-0.391
				C102.523,29.135,102.226,29.156,101.931,29.187z M105.429,29.515c0.023,0.086,0.066,0.258,0.088,0.345
				c0.677-0.001,1.328-0.223,2.007-0.243C106.831,29.501,106.126,29.54,105.429,29.515z M144.071,40.771
				c-0.14,0.188,0.182,0.414,0.328,0.241C144.532,40.823,144.212,40.595,144.071,40.771z"/>
		</g>
		<g>
			<path d="M68.303,27.047c0.705-0.524,1.312-1.244,2.192-1.468c-0.792,1.992-2.081,3.891-2.066,6.108
				c0.417-0.19,0.833-0.39,1.262-0.56c-0.201,0.575-0.842,0.64-1.349,0.767c0.032,0.211,0.063,0.422,0.095,0.635
				c1.261-0.474,2.513-0.98,3.826-1.295c-0.627,0.537-1.394,0.866-2.104,1.272c0.529-0.025,1.057-0.098,1.584-0.155
				c0.266-0.008,0.532-0.003,0.799,0c-0.678,1.059-1.412,2.089-1.92,3.246c-0.646,0.088-1.298,0.079-1.943,0.154
				c-0.886,0.154-1.745,0.448-2.551,0.843c-0.104,0.373-0.147,0.779-0.366,1.107c-0.643,0.4-1.412,0.583-1.99,1.097
				c-1.269,0.693-2.592,1.285-3.868,1.963c-0.389,0.223-0.839,0.238-1.27,0.299c-0.345,0.127-0.629,0.369-0.936,0.565
				c-0.526,0.378-1.169,0.538-1.692,0.917c-1.405,0.879-2.713,1.906-3.967,2.987c-1.288,1.17-2.546,2.373-3.918,3.446
				c-0.213-0.069-0.423-0.139-0.634-0.212c-1.165,0.81-2.077,1.908-3.026,2.948c-1.378,1.658-2.66,3.398-3.827,5.212
				c-0.331,0.528-0.986,0.759-1.254,1.343c-0.822,1.496-1.758,2.975-2.141,4.659c-0.125,0.595-0.659,0.996-0.781,1.596
				c-0.336,1.401-0.721,2.795-0.921,4.224c-0.141,0.773-0.242,1.583-0.668,2.264c-0.233,0.297-0.067,0.679-0.048,1.017
				c0.088,0.542-0.009,1.087-0.054,1.629c-0.075,0.573,0.27,1.079,0.349,1.631c0.05,0.537-0.138,1.059-0.169,1.59
				c0.058,0.505,0.383,0.979,0.238,1.5c-0.301,1.443,0.589,2.727,0.904,4.082c0.177,0.576,0.128,1.186,0.238,1.771
				c0.165,0.443,0.444,0.83,0.646,1.256c0.408,0.777,0.583,1.646,0.935,2.445c0.196,0.535,0.561,1.146,0.152,1.678
				c-0.575-0.779-0.709-1.772-1.241-2.577c0.218,1.237,0.652,2.417,1.018,3.616c0.321,0.674,0.787,1.27,1.144,1.924
				c0.833,1.354,1.566,2.814,2.757,3.899c0.413,0.395,0.918,0.671,1.389,0.986c-0.089,0.206-0.181,0.413-0.271,0.62
				c0.453,0.168,0.979,0.26,1.304,0.652c0.535,0.633,1.089,1.276,1.423,2.045c-0.204,0.059-0.411,0.123-0.615,0.188
				c0.279,0.305,0.568,0.604,0.872,0.887c-0.012-0.814-0.175-1.621-0.17-2.439c0.013-0.947-0.338-1.896-0.07-2.836
				c0.184-0.012,0.369-0.018,0.553-0.025c0.882,1.438,1.356,3.092,2.292,4.504c0.313,0.008,0.626,0.02,0.94,0.041
				c-0.012-0.875,0.043-1.748,0.159-2.612c0.165-0.007,0.327-0.013,0.493-0.021c0.21,0.266,0.415,0.537,0.623,0.805
				c0.245-0.871-0.052-1.761,0.059-2.643c0.127-1.615-0.054-3.243,0.153-4.854c-0.02-1.382,0.329-2.753,0.127-4.13
				c0.497,2.256,0.306,4.588,0.562,6.873c-0.077,1.391-0.066,2.78-0.11,4.172c-0.17,0.615-0.262,1.253-0.208,1.895
				c0.524-0.291,0.562-0.934,0.719-1.447c0.23-0.87,0.668-1.657,1.07-2.453c0.553-1.277,1.337-2.434,2.062-3.615
				c0.705-0.967,1.112-2.129,1.933-3.016c0.174,1.707-0.236,3.422-0.903,4.985c-0.384,0.962-0.708,1.949-1.155,2.888
				c-0.447,0.939-0.901,1.91-0.961,2.967c0.391-0.191,0.74-0.454,1.119-0.666c0.562,0.055,0.52,0.807,0.946,1.066
				c0.327,0.299,0.86,0.326,1.15-0.043c1.152-1.164,2.301-2.342,3.567-3.388c0.224-0.166,0.491-0.257,0.749-0.357
				c-0.091,0.735-0.335,1.44-0.428,2.178c0.363-0.013,0.727-0.024,1.09-0.03c-0.01,0.158-0.016,0.32-0.022,0.482
				c-0.209,0.088-0.417,0.178-0.624,0.271c0.714,0.213,1.5,0.143,2.2-0.098c0.141-0.158,0.225-0.354,0.332-0.531
				c0.171-0.072,0.344-0.143,0.517-0.209c-0.745-2.992-2.409-5.76-2.547-8.889c0.758,1.055,1.159,2.305,1.668,3.486
				c0.577,1.105,0.988,2.291,1.663,3.346c0.539,0.87,0.996,1.791,1.606,2.617c0.924,0.024,1.859-0.03,2.769,0.154
				c0.47,0.164,0.889,0.504,1.413,0.469c0.009-3.004-0.051-6.007-0.023-9.012c0.126-1.076,0.12-2.164,0.21-3.246
				c0.075-0.021,0.224-0.062,0.298-0.085c-0.027,1.013-0.004,2.028,0.062,3.04c-0.186,2.203,0.022,4.406,0.164,6.604
				c0.151,1.123,0.343,2.246,0.657,3.34c0.483-0.393,0.971-0.816,1.188-1.422c0.651-1.645,1.492-3.207,2.348-4.752
				c0.927-1.387,1.729-2.943,3.161-3.883c-0.006,0.941-0.16,1.912,0.168,2.818c0.373,1.055,0.566,2.171,1.045,3.188
				c0.234-1.197-0.206-2.381-0.256-3.575c-0.025-0.313,0.064-0.616,0.229-0.88c0.239,0.518,0.428,1.057,0.685,1.566
				c0.667-0.938,0.59-2.15,0.914-3.217c0.287-0.008,0.575-0.014,0.861-0.012c0.23,1.604,0.488,3.203,0.826,4.787
				c0.155-0.119,0.313-0.234,0.448-0.377c0.84-1.002,1.672-2.012,2.455-3.062c0.195-0.18,0.404-0.343,0.613-0.506
				c0.139,0.273,0.276,0.549,0.412,0.824c-0.494,1.372-0.761,2.811-0.984,4.249c-0.047,0.301-0.039,0.609-0.016,0.915
				c0.489-0.036,0.865-0.35,1.238-0.632c0.138,0.306,0.278,0.613,0.424,0.917c0.4-0.086,0.797-0.184,1.192-0.286
				c0.135,0.394,0.24,0.815,0.53,1.13c0.352,0.4,0.78,0.738,1.062,1.198c0.282,0.429,0.464,0.926,0.807,1.319
				c0.2,0.254,0.667,0.208,0.781-0.111c0.419-0.946,0.482-2.033,1.099-2.895c0.551,0.455,0.634,1.199,0.873,1.832
				c0.166-0.02,0.331-0.04,0.498-0.059c0.007-0.083,0.023-0.25,0.031-0.335c-0.29-0.29-0.577-0.58-0.864-0.871
				c0.587-0.868,1.7-1.12,2.688-1.015c0.997,0.25,2.016,0.393,3.026,0.582c-0.256,0.285-0.514,0.57-0.763,0.86
				c0.215-0.065,0.432-0.132,0.646-0.2c0.32,0.008,0.641,0.027,0.962,0.047c-0.136,0.537-0.353,1.059-0.394,1.612
				c0.167,0.402,0.387,0.778,0.548,1.184c0.266-0.081,0.533-0.167,0.812-0.208c0.271,0.215,0.45,0.518,0.657,0.793
				c0.324-0.768,0.481-1.588,0.758-2.367c0.107-0.342,0.48-0.461,0.744-0.655c0.62,0.591,0.644,1.489,0.946,2.244
				c0.071-0.129,0.145-0.257,0.22-0.383c-0.626-1.835-1.895-3.339-2.727-5.071c-0.074-0.213-0.081-0.441-0.107-0.66
				c0.936-0.225,1.781,0.287,2.557,0.742c0.662,0.396,1.227,0.941,1.69,1.557c0.503,0.688,0.786,1.504,1.173,2.257
				c0.643-0.515,0.805-1.325,0.933-2.094c0.13-0.7,0.373-1.376,0.747-1.983c0.465,0.781,0.709,1.664,1.1,2.48
				c0.258-0.179,0.488-0.395,0.75-0.566c0.486-0.054,0.988-0.072,1.478-0.018c0.651,0.321,0.891,1.029,0.885,1.715
				c0.675-0.184,0.832-0.963,1.169-1.486c0.421-0.556,0.729-1.496,1.586-1.367c0.036,1.121-0.47,2.174-0.409,3.295
				c0.481-0.178,0.921-0.457,1.403-0.639c0.521,0.049,0.479,0.75,0.686,1.117c0.389-0.943,0.517-1.982,1.002-2.885
				c0.133-0.331,0.531-0.164,0.803-0.205c0.311,0.939,0.459,1.934,0.914,2.822c0.437-0.165,0.896-0.422,1.379-0.282
				c0.368,0.235,0.789,0.308,1.215,0.196c0.041-0.114,0.123-0.342,0.162-0.455c0.078-0.193,0.168-0.384,0.258-0.567
				c0.52,0.076,0.875,0.512,1.357,0.681c0.276,0.017,0.814-0.176,0.668-0.533c-0.031-0.387-0.457-0.357-0.735-0.445
				c0.163-0.141,0.331-0.283,0.468-0.455c0.117-0.711-0.02-1.439-0.118-2.147c-0.011-0.479,0.008-0.955,0.017-1.431
				c0.066,0.02,0.2,0.061,0.267,0.084c0.091,0.469,0.267,0.915,0.454,1.354c0.422,0.975,0.533,2.064,1.097,2.98
				c0.376-0.092,0.752-0.187,1.138-0.246c-0.254,0.359-0.6,0.636-0.943,0.906c0.035,0.107,0.104,0.321,0.139,0.428
				c0.447-0.012,0.895-0.023,1.345-0.032c0.291-0.997,0.026-2.133,0.567-3.052c0.123,0.527,0.217,1.062,0.334,1.593
				c0.166,0.831,0.127,1.685,0.219,2.526c0.016,0.174,0.033,0.346,0.053,0.521c0.578,0.082,1.17,0.223,1.75,0.05
				c0.25-1.022,0.246-2.112,0.696-3.08c0.102-0.197,0.415-0.191,0.482,0.029c0.37,0.918,0.592,1.891,0.892,2.836l0.1-0.029
				c0.631,0.055,1.265,0.039,1.898,0.021c-0.111-0.167-0.221-0.334-0.326-0.5c0.211-0.217,0.364-0.541,0.681-0.619
				c0.521-0.125,1.055-0.183,1.577-0.295c-0.123-0.178-0.245-0.357-0.369-0.532c0.227-0.277,0.609-0.237,0.922-0.172
				c0.256,0.304,0.369,0.757,0.771,0.913c0.656,0.289,1.391,0.164,2.085,0.141c-0.259-1.616-0.606-3.219-0.76-4.85
				c-0.071-0.822-0.335-1.734,0.083-2.498c0.498,1.895,1.24,3.717,1.907,5.559c0.157,0.632,0.87,0.768,1.421,0.854
				c0.262-1.378,0.238-2.795,0.562-4.164c0.457,1.473,0.115,3.053,0.586,4.518c0.386,0.568,1.109,0.758,1.703,1.043
				c0.428-1.068,0.537-2.221,0.789-3.337c0.183,0.09,0.428,0.132,0.488,0.364c0.576,1.309,0.773,2.752,1.306,4.074
				c0.657,0.776,1.612,1.217,2.409,1.836c-0.16-1.895-1.145-3.571-1.777-5.331c-0.354-1.079-0.905-2.155-0.729-3.329
				c0.182-0.009,0.367-0.014,0.553-0.021c0.36,0.575,0.711,1.161,0.97,1.793c0.408,1.01,0.995,1.935,1.415,2.939
				c0.398,0.957,0.826,1.902,1.298,2.825c0.474-0.199,0.381-0.777,0.464-1.192c0.068-1.808-0.036-3.631,0.223-5.43
				c0.211,0.031,0.479-0.033,0.625,0.172c0.521,0.605,0.848,1.349,1.183,2.066c0.345,0.713,0.335,1.533,0.656,2.254
				c0.573-0.359,1.15-0.718,1.676-1.146c0.599-0.189,1.22-0.331,1.784-0.62c0.459-0.64,0.076-1.646,0.777-2.136
				c0.224-0.182,0.459-0.35,0.689-0.522c0.289-0.105,0.455-0.614,0.035-0.652c-0.184-0.944,0.537-1.731,0.97-2.503
				c0.489-0.471,0.896-1.019,1.37-1.503c0.631-0.646,1.059-1.452,1.537-2.21c0.745-1.172,0.895-2.59,1.441-3.846
				c0.118-0.369,0.58-0.311,0.88-0.421c0.074-0.149,0.146-0.299,0.22-0.448c0.099-0.045,0.298-0.138,0.396-0.184
				c0.016,0.552,0.024,1.105,0.027,1.66c0.541-1.176,0.345-2.492,0.434-3.744c0.391-0.578,0.719-1.193,0.955-1.852
				c0.212-0.185,0.511-0.235,0.721-0.423c0.109-0.14,0.213-0.284,0.319-0.429c0.034,0.368,0.073,0.736,0.145,1.102
				c0.062,0.035,0.191,0.106,0.255,0.145c0.147-0.994,0.236-1.992,0.348-2.989c0.303-0.108,0.604-0.224,0.899-0.353
				c0.329,0.626,0.133,1.355,0.192,2.029c0.063,1.514-0.069,3.025-0.281,4.521c0.021,0.983-0.391,1.897-0.465,2.869
				c-0.225,0.02-0.444,0.04-0.664,0.065c-0.008,0.097-0.027,0.29-0.035,0.388c-0.08,0.65-0.339,1.266-0.439,1.915
				c-0.078-0.063-0.235-0.189-0.314-0.253c-0.118,0.227-0.258,0.44-0.387,0.661c0.205-0.153,0.404-0.313,0.622-0.456
				c0.028,0.566-0.261,1.061-0.507,1.547c-0.123-0.215-0.188-0.447-0.24-0.684c-0.524,1.219-0.572,2.636-1.404,3.711
				c-0.213,0.139-0.473,0.177-0.709,0.26c-0.295,0.918-0.68,1.812-1.269,2.582c-0.785,1.074-1.356,2.34-2.361,3.23
				c-0.034-0.07-0.103-0.212-0.138-0.28c-0.506,0.388-0.867,0.914-1.213,1.441c-0.355,0.376-0.623,0.819-0.848,1.284
				c0.227,0.015,0.453,0.033,0.682,0.055c0.016,0.133,0.045,0.406,0.059,0.539c-1.26,0.732-2.219,1.859-3.087,3.007
				c1.112,0.457,2.325,0.183,3.489,0.333c1.292-0.093,2.576,0.067,3.869,0.098c-0.019,0.331-0.051,0.664-0.084,0.995
				c-0.529,0.047-0.995-0.253-1.51-0.274c-0.553,0.135-1.109,0.25-1.668,0.359c0.226,0.068,0.462,0.092,0.7,0.123
				c-0.093,0.191-0.185,0.384-0.274,0.577c0.345,0.14,0.717,0.202,1.09,0.141c0.305-0.134,0.543-0.377,0.822-0.556
				c0.453-0.24,0.991-0.25,1.432-0.516c0.357-0.213,0.728-0.396,1.114-0.551c0.529,0.234,1.146,0.34,1.479,0.869
				c-0.196,0.264-0.381,0.537-0.563,0.812c0.608,0.194,1.202,0.439,1.812,0.636c-0.112-0.166-0.225-0.332-0.328-0.496
				c0.364-0.037,0.732-0.023,1.091,0.074c0.203,0.043,0.405,0.086,0.615,0.125c0.429,0.133,0.833-0.105,1.237-0.221
				c-0.032,0.234-0.064,0.473-0.085,0.711c-0.167,0.051-0.333,0.105-0.493,0.162c0.004,0.614,0.684,0.637,1.122,0.807
				c-0.72,0.265-1.487,0.143-2.229,0.227c-0.619,0.055-1.291,0.107-1.845-0.228c-0.327-0.19-0.292-0.706-0.673-0.82
				c-0.926-0.252-1.889-0.157-2.831-0.095c-0.218,0.285-0.538,0.582-0.907,0.344c-1.787-0.792-3.734-1.04-5.633-1.431
				c-0.732-0.097-1.432-0.493-2.175-0.429c-0.398,0.404-0.646,0.927-1.025,1.344c-0.755,0.025-1.511-0.025-2.265-0.007
				c-0.363,0.011-0.658,0.259-0.932,0.47c-0.787,0.694-1.684,1.288-2.305,2.152c-0.238,0.002-0.509-0.138-0.723,0.006
				c-0.285,0.25-0.51,0.566-0.828,0.781c-0.871,0.541-1.726,1.141-2.714,1.457c0.196-0.378,0.468-0.742,0.479-1.184
				c-0.659,0.144-1.112,0.684-1.536,1.168c-0.516,0.68-1.164,1.295-1.957,1.639c-0.283,0.165-0.562-0.053-0.849-0.053
				c-0.437,0.12-0.85,0.303-1.255,0.504c-1.922,0.915-4.15,1.154-5.896,2.428c0.266,0.105,0.545,0.178,0.826,0.242
				c-0.367,0.238-0.707,0.515-1.084,0.74c-0.359,0.196-0.781,0.1-1.167,0.148c-2.202,0.699-4.32,1.646-6.349,2.753
				c-1.227,0.546-2.52,0.935-3.817,1.268c-0.353,0.14-0.682-0.028-0.976-0.211c-1.426,0.81-2.969,1.798-4.686,1.485
				c-0.508-0.15-0.932,0.323-1.439,0.248c-1.699-0.137-3.358,0.356-5.046,0.449c-1.83,0.123-3.728,0.365-5.516-0.178
				c-0.396-0.065-0.756,0.162-1.129,0.248c-0.758,0.176-1.536,0.25-2.308,0.33c-0.819,0.206-1.672,0.096-2.5,0.211
				c-1.056,0.166-2.145,0.081-3.172-0.191c-0.245-0.024-0.34-0.252-0.456-0.428c0.49-0.253,1.036-0.302,1.57-0.385
				c-0.256-0.311-0.682-0.129-1.017-0.139c-1.081,0.131-2.16,0.205-3.245,0.203c0.568,0.301,1.182,0.546,1.673,0.979
				c-0.641,0.212-1.315,0.302-1.989,0.266c-0.526,0.092-0.812-0.438-1.138-0.75c-1.572-0.134-3.214-0.555-4.733,0.072
				c-1.196-0.281-2.408-0.498-3.59-0.832c-0.923-0.172-1.778-0.596-2.715-0.688c-1.066-0.293-2.171-0.393-3.239-0.673
				c-1.274-0.488-2.729-0.551-3.855-1.39c-0.958-0.762-2.276-0.592-3.381-0.939c-0.368-0.401-0.568-0.995-1.184-1.084
				c-0.679-0.28-1.443-0.15-2.12-0.439c-1.034-0.413-1.96-1.098-3.079-1.287c-0.435-0.061-0.665-0.427-0.931-0.728
				c-0.686-0.343-1.441-0.542-2.199-0.644c0.91,0.494,1.822,0.989,2.755,1.443c0.046,0.121,0.143,0.36,0.189,0.48
				c-0.589-0.211-1.094-0.586-1.661-0.844c-0.692-0.348-1.461-0.523-2.122-0.933c-0.49-0.289-0.802-0.817-1.349-1.019
				c-1.225-0.495-2.52-0.835-3.677-1.486c-0.686-0.396-1.405-0.738-2.041-1.21c-0.317-0.235-0.443-0.635-0.727-0.897
				c-2.183-1.369-4.263-2.912-6.252-4.557c-0.295-0.271-0.713-0.193-1.077-0.223c-0.152,0.181-0.301,0.368-0.451,0.557
				c-0.761-0.033-1.547-0.343-2.292-0.056c-0.357,0.089-0.693-0.205-1.055-0.133c-0.941,0.149-1.833,0.505-2.752,0.754
				c-0.204,0.072-0.417,0.022-0.621-0.017c-0.545-0.122-1.096-0.338-1.656-0.168c-1.623,0.04-3.298-0.133-4.854,0.441
				c-0.309,0.153-0.498-0.166-0.706-0.325c-0.343,0.062-0.649,0.227-0.926,0.429c0.096-0.305,0.224-0.596,0.353-0.887
				c-0.227-0.23-0.442-0.471-0.671-0.696c-0.174,0.362-0.287,0.76-0.505,1.101c-0.43-0.042-0.795-0.459-1.246-0.211
				c0.185,0.311,0.463,0.552,0.667,0.85c-1.128,0.931-2.361-0.379-3.574-0.335c-0.653-0.142-1.107,0.642-1.768,0.38
				c-0.228-0.199-0.347-0.492-0.562-0.703c-0.212,0.004-0.424,0.037-0.634,0.061c0.13-0.371,0.349-0.702,0.542-1.045
				c-0.088-0.07-0.266-0.211-0.354-0.281c-0.643,0.242-0.75,0.965-0.964,1.531c-0.418-0.409-0.973-0.197-1.453-0.057
				c-0.374,0.125-0.77-0.29-1.114-0.031c-0.493,0.252-0.483,0.889-0.746,1.318c-0.023-0.32-0.059-0.641-0.033-0.959
				c0.218-0.543,0.521-1.088,0.473-1.693c-1.088,0.465-1.27,1.801-1.734,2.762c-0.241,0-0.482,0.004-0.723,0.018
				c-0.161,0.215-0.36,0.396-0.594,0.533c-0.291-1.057,0.095-2.119,0.401-3.123c0.331-0.788,0.794-1.525,1.355-2.173
				c0.833-1.064,1.786-2.08,3-2.71c-0.067,0.32-0.164,0.637-0.215,0.961c0.553-0.144,0.939-0.564,1.349-0.93
				c0.25-0.244,0.624-0.127,0.937-0.155c-0.045,0.17-0.088,0.344-0.132,0.517c-0.198,0.012-0.393,0.025-0.588,0.038
				c0,0.083-0.002,0.247-0.003,0.33c0.646-0.258,1.313-0.528,1.725-1.125c0.326,0.024,0.73-0.093,0.968,0.202
				c0.126,0.088,0.249,0.301,0.428,0.182c0.859-0.468,1.858-0.455,2.785-0.695c-0.028,0.191-0.058,0.385-0.088,0.58
				c0.817,0.178,1.556-0.21,2.222-0.635c0.671,0.301,1.406,0.372,2.117,0.531c0.633,0.033,0.954-0.715,1.578-0.681
				c1.382,0.021,2.741-0.573,4.125-0.255c-0.142,0.488-0.292,0.982-0.308,1.497c0.53-0.36,0.872-0.904,1.187-1.446
				c-0.095-0.139-0.19-0.276-0.284-0.413c-0.301-0.485-0.782-0.807-1.152-1.229c-0.185-0.336-0.234-0.73-0.439-1.055
				c-0.392-0.587-1.217-0.703-1.531-1.354c-0.626-1.152-1.39-2.26-1.706-3.549c0.934,0.7,1.56,1.706,2.41,2.493
				c0.566,0.525,1.014,1.162,1.582,1.686c-0.074-0.684-0.716-1.037-1.017-1.598c-0.389-0.873-0.485-1.884-1.053-2.672
				c-0.438-0.263-0.987-0.378-1.293-0.824c-0.557-0.74-1.084-1.505-1.696-2.203c-0.655-1.387-1.269-2.8-2.019-4.142
				c-0.5-0.868-0.513-1.896-0.754-2.847c-0.283-1.12-0.331-2.279-0.425-3.425c-0.174-1.038-0.178-2.093-0.122-3.14
				c0.19,0.291,0.378,0.585,0.594,0.861c0.001-0.812-0.046-1.643,0.277-2.411c0.081,0.021,0.24,0.065,0.32,0.088
				c0.12,0.229,0.242,0.454,0.372,0.679c0.03-0.795,0.067-1.598-0.057-2.388c-0.107-0.643-0.517-1.165-0.826-1.718
				c-0.17-0.362-0.035-0.831-0.321-1.143c-0.325-0.434-0.724-0.925-0.559-1.503c-0.057-0.544,0.52-0.836,0.53-1.363
				c0.065-0.575,0.191-1.144,0.184-1.725c0.072,0.274,0.144,0.551,0.242,0.819c0.533-0.628,0.511-1.483,0.622-2.254
				c0.343-0.535,0.406-1.179,0.702-1.735c0.396-0.679,0.607-1.566,1.439-1.83c0.377-0.61,0.69-1.26,1.093-1.855
				c0.04-1.003,0.299-1.985,0.72-2.896c0.506-1.537,1.382-2.921,1.867-4.47c0.069-0.267,0.313-0.422,0.471-0.634
				c0.476-0.758,0.865-1.585,1.462-2.259c0.558-0.349,1.055-0.787,1.626-1.115c0.186,0.136,0.366,0.397,0.632,0.311
				c1.006-0.634,1.353-1.875,2.284-2.583c0.826-0.436,1.306-1.281,1.848-2.006c0.352-0.289,0.851-0.294,1.207-0.581
				c1.323-0.926,2.413-2.128,3.585-3.228c0.937-0.833,2.105-1.304,3.208-1.867c0.758-0.377,1.383-0.96,2.037-1.488
				c0.435-0.318,0.926-0.549,1.389-0.822c0.289,0.14,0.596,0.351,0.924,0.204c0.758-0.343,1.478-0.774,2.136-1.283
				c0.062-0.223-0.107-0.418-0.182-0.615c0.902-0.56,1.967-0.749,2.99-0.954c0.615-0.317,1.27-0.569,1.834-0.969
				c0.003-0.092,0.01-0.274,0.014-0.368c-0.802,0.206-1.562,0.534-2.342,0.806c0.672-0.397,1.382-0.731,2.058-1.124
				c0.548-0.278,0.537-0.962,0.742-1.465C65.549,29.625,66.86,28.179,68.303,27.047z M51.64,44.118
				c0.653-0.192,1.143-0.79,1.219-1.464C52.243,42.917,51.853,43.504,51.64,44.118z M42.587,52.597
				c-0.34,0.437-0.759,0.851-0.858,1.419c0.537-0.116,0.718-0.692,1.054-1.058c0.669-0.8,1.235-1.672,1.787-2.555
				C43.756,50.984,43.198,51.825,42.587,52.597z M32.951,66.761c0.409-0.465,0.466-1.111,0.491-1.702
				C33.007,65.507,32.881,66.158,32.951,66.761z M32.216,66.172c-0.177,0.978-0.189,1.976-0.354,2.955
				c-0.15,0.707-0.097,1.434-0.018,2.147l0.019,0.186c0.044-0.067,0.132-0.202,0.176-0.268c0.363,0.136,0.511-0.539,0.258-0.734
				c0.189-0.469,0.391-0.932,0.604-1.393l0.089,0.113c0.2-1.052-0.154-2.087-0.264-3.126C32.597,66.083,32.342,66.142,32.216,66.172
				z M31.195,83.243c0.579,1.194,1.371,2.295,1.75,3.579c0.106,0.271,0.199,0.687,0.553,0.709c0.316-0.439-0.122-0.898-0.289-1.302
				c-0.525-0.872-0.704-1.882-0.999-2.841c-0.323-1.173-0.183-2.42-0.579-3.573C30.534,80.625,30.88,82.129,31.195,83.243z
				 M77.375,98.102c-0.167,0.639-0.701,1.137-0.738,1.817c0.121,0.323,0.439,0.522,0.659,0.778c0.17-0.174,0.374-0.324,0.497-0.537
				c0.249-0.812,0.152-1.674,0.283-2.506c0.067-0.439-0.049-0.872-0.112-1.301C77.703,96.913,77.533,97.508,77.375,98.102z
				 M85.621,98.854c-0.252,0.084-0.519,0.189-0.68,0.416c-0.011,0.338,0.105,0.664,0.185,0.988c0.197-0.007,0.395-0.012,0.592-0.017
				c0.098-0.446,0.256-0.878,0.35-1.324C86.014,98.662,85.782,98.809,85.621,98.854z M60.499,100.312
				c0.067,0.346,0.188,0.689,0.183,1.048c-0.13,0.293-0.317,0.559-0.498,0.826c0.501-0.188,1.022-0.33,1.5-0.575
				c0.005-0.05,0.014-0.153,0.02-0.203c-0.328-0.476-0.709-0.923-0.913-1.474C60.716,100.028,60.571,100.217,60.499,100.312z
				 M97.563,99.795c-0.375,0.268-0.652,0.658-1.044,0.906c-0.337,0.2-0.713,0.326-1.08,0.463c0.036,0.24,0.084,0.48,0.148,0.716
				c0.515-0.228,0.992-0.646,1.589-0.581c0.588,0.047,1.188,0.176,1.767-0.008c-0.12-0.439-0.247-0.875-0.456-1.275
				C98.316,99.683,97.868,99.777,97.563,99.795z M83.333,100.113c0.001,0.096,0.005,0.284,0.006,0.38
				c0.185-0.14,0.371-0.276,0.558-0.413C83.708,100.089,83.52,100.101,83.333,100.113z M143.158,101.059
				c0.008,0.717,0.104,1.441,0.378,2.112c0.186-0.557,0.32-1.132,0.326-1.72C143.628,101.316,143.394,101.185,143.158,101.059z
				 M127.932,101.969c0.292,0.07,0.589,0.131,0.889,0.183c0.003-0.253,0.009-0.503,0.018-0.755
				C128.509,101.541,128.044,101.562,127.932,101.969z M125.699,101.604c-0.189,0.242,0.244,0.474,0.402,0.249
				C126.29,101.606,125.854,101.377,125.699,101.604z M136.743,103.25c0.328,0.375,0.906,0.555,1.354,0.285
				c0.8-0.467,1.698-0.716,2.604-0.869c-0.396-0.022-0.781-0.122-1.146-0.274c0.242-0.239,0.488-0.47,0.729-0.708
				C138.922,101.519,137.626,102.261,136.743,103.25z M32.451,103.871c-0.026,0.189-0.026,0.385-0.031,0.581
				c0.291,0.022,0.582,0.04,0.875,0.056c-0.016-0.08-0.046-0.24-0.062-0.319C32.972,104.079,32.756,103.703,32.451,103.871z
				 M130.199,121.65c0.329-0.122,0.66-0.24,0.97-0.408C130.827,121.333,130.513,121.49,130.199,121.65z M109.841,125.332
				c0.791-0.044,1.574-0.161,2.365-0.213c-0.025-0.072-0.076-0.218-0.101-0.289C111.334,124.59,110.47,124.854,109.841,125.332z
				 M108.729,125.413c0.315,0.204,0.867,0.243,0.979-0.213C109.378,125.248,109.05,125.322,108.729,125.413z M94.195,126.817
				c0.455,0.067,0.917,0.077,1.378,0.036c-0.193-0.127-0.387-0.27-0.615-0.315C94.661,126.504,94.168,126.348,94.195,126.817z"/>
		</g>
		<path d="M80.577,29.339c0.044-0.138,0.133-0.413,0.178-0.549c0.584,0.233,1.21,0.259,1.821,0.111
			c-0.33,0.179-0.624,0.414-0.885,0.684C81.314,29.53,80.946,29.421,80.577,29.339z"/>
		<g>
			<path d="M69.597,36.628c0.675-0.22,1.345-0.482,2.052-0.578c0.504-0.078,0.958,0.203,1.396,0.406
				c0.665,0.347,1.442,0.338,2.12,0.644c0.789,0.362,1.645,0.526,2.49,0.701c0.497,0.117,1-0.02,1.498-0.053
				c0.509-0.036,0.964,0.267,1.469,0.274c0.562-0.039,1.102-0.305,1.675-0.229c0.772,0.099,1.482,0.445,2.233,0.637
				c0.852,0.214,1.73-0.054,2.587,0.072c0.615,0.167,0.743,0.903,1.008,1.397c2.849,0.509,5.796-0.17,8.385-1.382
				c0.612-0.27,1.204-0.905,1.926-0.614c0.2,0.09,0.359,0.312,0.596,0.308c0.905-0.019,1.822-0.186,2.718,0.007
				c0.434,0.092,0.878,0.075,1.313,0.149c0.98,0.276,2.005,0.369,2.983,0.659c1.123,0.323,2.269,0.56,3.396,0.86
				c2.096,0.74,3.953,1.993,5.786,3.224c0.936,0.71,1.945,1.358,3.059,1.751c1.45,0.272,2.931,0.011,4.394,0.079
				c1.627,0.099,3.236-0.212,4.862-0.196c1.194-0.082,2.392-0.17,3.588-0.034c2.188,0.302,4.147,1.473,5.782,2.914
				c0.785,0.71,1.634,1.362,2.311,2.183c1.598,2.032,3.869,3.543,5.001,5.928c1.124,2.257,0.911,4.893,0.444,7.293
				c-0.467,1.842-1.193,3.61-2.092,5.282c-0.277,0.477-0.533,0.982-0.535,1.548c-0.125,1.971-0.78,3.847-1.363,5.718
				c-0.46,1.077-0.666,2.25-1.217,3.288c-0.553,1.053-0.842,2.228-1.475,3.24c-0.418,0.783-0.771,1.598-1.213,2.369
				c-0.103,0.445-0.129,0.904-0.166,1.359c-0.456,0.403-0.766,0.93-1.062,1.453c-0.213-0.252-0.418-0.501-0.625-0.754
				c-0.293,0.168-0.596,0.311-0.912,0.424c-0.056-0.248-0.108-0.49-0.159-0.736c-0.565,0.311-1.186,0.5-1.825,0.559
				c-0.205-0.571-0.255-1.174-0.234-1.773c0.023-0.986-0.401-1.906-0.516-2.875c-0.144-1.078-0.229-2.166-0.502-3.223
				c-0.26-1.002-0.213-2.048-0.418-3.057c-0.146-0.876-1.357-1.103-1.997-0.627c-0.32,0.295-0.314,0.772-0.304,1.172
				c0.076,1.102,0.212,2.223,0.678,3.234c0.224,0.539,0.551,1.066,0.547,1.67c0.004,0.493-0.045,0.984-0.086,1.477
				c-0.369,0.693-0.617,1.477-1.174,2.051c-0.316,0.344-0.809,0.384-1.184,0.629c-0.252,0.263-0.414,0.59-0.604,0.896
				c-0.31-0.158-0.608-0.332-0.898-0.521c-0.243,0.166-0.485,0.333-0.727,0.499c-0.156-0.358-0.311-0.72-0.461-1.081
				c-0.216,0.365-0.455,0.715-0.725,1.041c-0.223-0.205-0.44-0.414-0.658-0.623c-0.27,0.18-0.545,0.352-0.821,0.521
				c-0.34-0.504-0.452-1.102-0.58-1.682c-0.095-0.474-0.421-0.84-0.706-1.208c-0.855-1.181-1.664-2.4-2.353-3.684
				c-0.114-0.348-0.538-0.232-0.808-0.225c-1.412,0.188-2.814,0.438-4.215,0.688c-1.051,0.191-2.298,0.025-3.117,0.846
				c-0.51,0.416-0.432,1.115-0.495,1.699c-0.283,1.966-1.147,3.777-1.658,5.684c-0.431,0.869-0.815,1.765-1.203,2.654
				c-0.165,0.078-0.329,0.156-0.491,0.234c-0.428-0.216-0.9-0.295-1.373-0.238c-0.15-0.229-0.296-0.457-0.441-0.685
				c-0.35,0.386-0.738,0.736-1.186,1.006c-0.139-0.328-0.271-0.659-0.399-0.989c-0.195,0.462-0.427,0.942-0.917,1.15
				c-0.174-0.562-0.337-1.134-0.632-1.648c-0.217,0.348-0.429,0.701-0.642,1.053c-0.421-0.006-0.843,0.004-1.262,0.025
				c0.036-0.465,0.157-0.916,0.376-1.33c0.572-1.076,0.383-2.336,0.32-3.502c-0.089-0.8-0.027-1.613-0.167-2.408
				c-0.146-0.159-0.369-0.176-0.567-0.197c-0.98-0.088-1.965-0.047-2.944-0.045c-0.671-0.064-1.345-0.08-2.017-0.069
				c0.074,1.006,0.294,2.01,0.163,3.021c-0.13,0.961-0.215,1.939-0.513,2.868c-0.313,0.429-0.662,0.827-1.009,1.226
				c-0.153-0.182-0.303-0.361-0.454-0.54c-0.437,0.202-0.916,0.294-1.39,0.177c-0.163,0.198-0.323,0.398-0.48,0.601
				c-0.206-0.171-0.409-0.34-0.614-0.509c-0.532,0.379-1.106,0.689-1.689,0.98c-0.232-0.379-0.436-0.774-0.613-1.178
				c-0.17,0.215-0.338,0.428-0.51,0.641c-0.694-0.647-0.313-1.675-0.803-2.4c-0.748-0.906-1.135-2.029-1.636-3.077
				c-0.99-2.72-1.808-5.503-2.538-8.303c-0.146-1.302-0.27-2.636-0.772-3.857c-0.437-0.588-1.16-0.872-1.673-1.387
				c-0.971-0.961-1.94-2.026-2.308-3.378c-0.545-1.554-0.822-3.19-0.948-4.827c-0.059-0.417,0.097-0.951-0.291-1.244
				c-0.48-0.439-0.944-0.907-1.251-1.488c-0.997-1.86-1.608-3.892-2.449-5.818c-1.14-0.032-2.281-0.265-3.312-0.757
				c-0.497-0.24-0.856-0.683-1.104-1.165c-0.007-0.239-0.001-0.475,0-0.713c0.282-0.235,0.563-0.471,0.841-0.713
				c-0.598-0.233-1.215-0.413-1.856-0.472c-0.996-0.093-1.964-0.358-2.938-0.564c-0.396-0.101-0.848-0.173-1.111-0.519
				c-0.431-0.552-0.731-1.207-0.888-1.887c-0.154-0.865-0.04-1.75,0.056-2.616c0.859-1.301,2.825-1.052,3.609-2.439
				c0.315-0.422,0.649-0.828,1.014-1.21c0.142-0.184,0.38-0.36,0.332-0.625c-0.056-0.922-0.466-1.896-0.072-2.793
				C67.764,37.492,68.67,36.941,69.597,36.628z M77.72,41.885c0.018,0.226,0.037,0.453,0.057,0.679
				c0.671,0.412,1.356-0.086,2.022-0.226C79.222,41.89,78.433,41.658,77.72,41.885z"/>
		</g>
		<path d="M165.191,58.751c0.384,0.411,0.662,0.901,0.948,1.383c-0.178,0.13-0.338,0.126-0.481-0.007
			C165.229,59.811,165.212,59.234,165.191,58.751z"/>
		<path d="M166.577,64.758c-0.13-0.583-0.211-1.175-0.327-1.761c0.312,0.411,0.612,0.828,0.879,1.271
			c-0.157,0.235-0.246,0.541-0.512,0.679L166.577,64.758z"/>
		<path d="M167.928,70.048c-0.299-0.445-0.382-0.978-0.262-1.498C167.917,68.994,168.149,69.544,167.928,70.048z"/>
		<path d="M168.643,70.532c0.716,1.639,0.831,3.456,0.948,5.215c-0.094,0.803,0.382,1.761-0.238,2.433
			c-0.256-0.843-0.418-1.71-0.401-2.592c-0.215-0.749-0.363-1.534-0.371-2.303c0.364-0.546-0.006-1.137,0.015-1.723
			C168.583,71.217,168.606,70.874,168.643,70.532z"/>
		<path d="M173.23,108.012c0.267-0.025,0.538-0.007,0.81,0c-0.006,0.158-0.01,0.322-0.01,0.486
			C173.748,108.485,173.056,108.406,173.23,108.012z"/>
		<path d="M174.188,109.979c0.384-0.037,0.772-0.059,1.157-0.104c0.045,0.245,0.084,0.495,0.079,0.747
			C174.925,110.623,174.552,110.271,174.188,109.979z"/>
		<path d="M177.183,111.281c1.143,0.215,2.147,0.875,2.826,1.814c0.104,0.339,0.16,0.692,0.221,1.043
			c-0.5-0.02-0.783-0.467-1.099-0.789C178.47,112.672,177.96,111.844,177.183,111.281z"/>
		<path d="M91.062,26.805c0.898-0.331,1.886-0.403,2.824-0.211c-0.016,0.085-0.052,0.255-0.069,0.341
			c0.249-0.002,0.497-0.003,0.747-0.004c-0.632,0.281-1.336,0.325-1.999,0.125c0.159-0.401,0.69-0.271,1.027-0.372
			c-0.428,0.04-0.929-0.113-1.273,0.212c-0.334,0.32-0.796,0.39-1.238,0.378C91.076,27.158,91.066,26.922,91.062,26.805z"/>
		<path d="M95.318,27.026c0.497,0.044,0.973-0.133,1.466-0.146c0.767-0.043,1.538-0.028,2.306-0.057
			c-0.673,0.203-1.378,0.145-2.071,0.187c0.332,0.105,0.662,0.215,0.979,0.361c-0.299,0.066-0.598,0.13-0.898,0.191
			c0.694,0.261,1.379,0.002,1.99-0.343c0,0.22,0,0.441,0.003,0.663c-1.034,0.086-2.057,0.256-3.092,0.275
			c0.103-0.28,0.233-0.55,0.384-0.806c-0.787,0.179-1.596,0.192-2.397,0.255c0.617-0.318,1.31-0.404,1.999-0.359
			C95.761,27.177,95.536,27.105,95.318,27.026z"/>
		<path d="M116.058,28.714c0.93-0.067,1.982-0.245,2.757,0.409c-0.891-0.091-1.813,0.105-2.683-0.131
			C116.113,28.923,116.077,28.784,116.058,28.714z"/>
		<path fill="#686867" d="M77.565,29.384c0.998-0.107,2.01-0.096,3.012-0.045c0.369,0.083,0.737,0.191,1.114,0.246
			c0.267,0.052,0.551,0.047,0.808,0.156c0.989,0.544,2.08,0.88,3.024,1.509c0.491,0.345,1.106,0.3,1.668,0.212
			c-0.079,0.145-0.159,0.293-0.238,0.438c0.388,0.493,0.725,1.022,1.085,1.535c0.473,0.663,1.271,0.943,2.002,1.213
			c1.747,0.627,3.725,0.435,5.377-0.38c0.882-0.348,1.498-1.104,2.055-1.84c-0.298,0.93-0.498,1.887-0.694,2.842
			c0.653-0.092,1.312-0.037,1.935,0.188c0.121,0.356,0.224,0.724,0.412,1.053c0.349,0.2,0.701-0.2,1.014-0.334
			c-0.376,0.774-1.491,0.833-1.705,1.726c-0.722-0.291-1.314,0.344-1.926,0.614c-2.589,1.212-5.536,1.891-8.385,1.382
			c-0.265-0.494-0.393-1.23-1.008-1.397c-0.857-0.126-1.735,0.142-2.587-0.072c-0.751-0.192-1.461-0.539-2.233-0.637
			c-0.573-0.076-1.113,0.19-1.675,0.229c-0.505-0.007-0.959-0.311-1.469-0.274c-0.497,0.034-1.001,0.17-1.498,0.053
			c-0.845-0.175-1.701-0.338-2.49-0.701c-0.677-0.306-1.455-0.297-2.12-0.644c-0.438-0.204-0.892-0.484-1.396-0.406
			c-0.708,0.096-1.377,0.358-2.052,0.578c-0.926,0.313-1.833,0.864-2.34,1.724c-0.394,0.898,0.016,1.872,0.072,2.793
			c0.048,0.265-0.189,0.441-0.332,0.625c0.27-0.795-0.084-1.606-0.111-2.409c0.037-0.589-0.449-0.985-0.762-1.422
			c-0.829,0.147-1.593,0.514-2.354,0.861c0.578-0.514,1.347-0.697,1.99-1.097c0.219-0.328,0.263-0.735,0.366-1.107
			c0.806-0.396,1.665-0.689,2.551-0.843c0.646-0.075,1.298-0.066,1.943-0.154c0.509-1.157,1.242-2.187,1.92-3.246
			c-0.268-0.003-0.533-0.007-0.799,0c0.324-0.139,0.7-0.146,1.006-0.326C74.158,30.852,75.744,29.777,77.565,29.384z"/>
		<path fill="#F5F5F5" d="M101.931,29.187c0.295-0.03,0.593-0.051,0.891-0.068c-0.012,0.098-0.034,0.294-0.045,0.391
			C102.479,29.449,102.155,29.409,101.931,29.187z"/>
		<path d="M72.083,30.894c0.045-0.731,0.885-0.984,1.478-1.156C73.217,30.268,72.762,30.836,72.083,30.894z"/>
		<path d="M56.886,37.206c0.804-0.51,1.522-1.216,2.448-1.487c-0.425,0.542-1.016,0.914-1.542,1.351
			c0.005,0.083,0.014,0.255,0.018,0.34C57.482,37.557,57.175,37.346,56.886,37.206z"/>
		<path d="M144.071,40.771c0.141-0.176,0.461,0.052,0.328,0.241C144.253,41.185,143.932,40.958,144.071,40.771z"/>
		<path d="M148.45,42.414c0.312,0.132,0.62,0.274,0.924,0.425c0.109-0.094,0.221-0.189,0.336-0.281l0.096-0.082
			c0.726,0.322,1.459,0.702,2.01,1.286c-0.564-0.159-1.058-0.498-1.623-0.656c0.018,0.242,0.043,0.485,0.064,0.729
			C149.599,43.44,148.847,43.116,148.45,42.414z"/>
		<path d="M128.46,44.541c0.891-0.083,1.811-0.133,2.671,0.17c-1.196-0.136-2.394-0.048-3.588,0.034
			c-1.626-0.016-3.235,0.295-4.862,0.196c-1.463-0.068-2.943,0.193-4.394-0.079c1.888,0.021,3.783,0.06,5.67-0.043
			C125.45,44.583,126.972,44.812,128.46,44.541z"/>
		<path fill="#686867" d="M62.628,49.384c-0.712-1.18-0.684-2.689-0.253-3.964c-0.095,0.865-0.209,1.75-0.056,2.616
			c0.157,0.68,0.458,1.335,0.888,1.887c0.263,0.346,0.716,0.417,1.111,0.519c0.975,0.206,1.942,0.471,2.938,0.564
			c0.641,0.059,1.258,0.238,1.856,0.472c-0.278,0.243-0.559,0.479-0.841,0.713c-0.001,0.238-0.007,0.474,0,0.713
			c-0.097-0.173-0.192-0.347-0.285-0.521c-1.09,0.423-2.376,0.599-3.478,0.121C63.53,51.724,63.181,50.456,62.628,49.384z"/>
		<path d="M163.126,56.557c0.682,0.838,1.374,1.829,1.372,2.946c-0.487-0.802-1.037-1.565-1.577-2.332
			C162.992,56.967,163.06,56.764,163.126,56.557z"/>
		<path d="M164.964,60.906c0.266,0.074,0.539,0.142,0.818,0.132c0.043,0.108,0.087,0.218,0.135,0.331
			c-0.481,0.531,0.169,1.104,0.333,1.627c0.116,0.586,0.197,1.178,0.327,1.761c-0.104-0.01-0.312-0.029-0.418-0.038
			c-0.096-0.159-0.189-0.315-0.285-0.469c-0.3-0.473-0.507-0.99-0.731-1.501C165.455,62.131,164.702,61.548,164.964,60.906z"/>
		<path d="M32.039,71.193c0.078-0.246,0.154-0.495,0.258-0.734C32.55,70.654,32.402,71.329,32.039,71.193z"/>
		<path d="M167.154,69.618c0.173,0.163,0.347,0.328,0.523,0.492c0.114,0.364,0.212,0.74,0.22,1.124
			c-0.074,0.18-0.155,0.359-0.236,0.535C167.476,71.057,167.137,70.37,167.154,69.618z"/>
		<path fill="#686867" d="M128.357,75.225c0.64-0.476,1.852-0.25,1.997,0.627c0.205,1.009,0.158,2.055,0.418,3.057
			c0.273,1.057,0.358,2.145,0.502,3.223c0.114,0.969,0.539,1.889,0.516,2.875c-0.021,0.6,0.029,1.202,0.234,1.773
			c0.64-0.059,1.26-0.248,1.825-0.559c0.051,0.246,0.104,0.488,0.159,0.736c0.316-0.113,0.619-0.256,0.912-0.424
			c0.207,0.253,0.412,0.502,0.625,0.754c0.297-0.523,0.606-1.05,1.062-1.453c0.037-0.455,0.063-0.914,0.166-1.359
			c-0.09,1.068,0.188,2.127,0.145,3.196c-0.018,0.583-0.412,1.044-0.688,1.528c-0.432,0.727-0.488,1.586-0.672,2.395
			c-0.27,1.183-0.09,2.404-0.246,3.598c-0.089,0.746,0.043,1.492,0.158,2.229c0.113,0.714,0.591,1.29,0.812,1.966
			c0.148,0.434,0.258,0.883,0.37,1.328c0.208,0.002,0.417,0.007,0.63,0.01c0.056-0.115,0.166-0.345,0.221-0.46
			c0.124,0.175,0.246,0.354,0.369,0.532c-0.522,0.112-1.057,0.17-1.577,0.295c-0.316,0.078-0.47,0.402-0.681,0.619
			c-0.547,0.071-1.086,0.215-1.572,0.479l-0.1,0.029c-0.3-0.945-0.521-1.918-0.892-2.836c-0.067-0.221-0.381-0.227-0.482-0.029
			c-0.45,0.968-0.446,2.058-0.696,3.08c-0.395-0.604-1.188-0.471-1.803-0.57c-0.092-0.842-0.053-1.695-0.219-2.526
			c0.356-0.433,0.638-0.921,0.879-1.425c0.409-0.865,0.897-1.728,0.985-2.699c0.128-1.133,0.126-2.277,0.053-3.411
			c-0.06-0.909-0.462-1.741-0.626-2.628c-0.172-1.367-0.072-2.762,0.307-4.086c0.215-0.604-0.148-1.182-0.25-1.768
			c-0.215-1.297-0.412-2.597-0.521-3.906c-0.287-1.247-0.526-2.511-0.528-3.793c-0.292-0.175-0.577-0.397-0.925-0.438
			c-0.484-0.069-1.025,0.312-1.013,0.827c-0.036,0.931,0.089,1.874,0.361,2.764c0.185,0.643,0.68,1.135,0.896,1.757
			c0.108,0.754-0.052,1.527-0.278,2.246c0.041-0.492,0.09-0.983,0.086-1.477c0.004-0.604-0.323-1.131-0.547-1.67
			c-0.466-1.012-0.602-2.133-0.678-3.234C128.043,75.997,128.037,75.52,128.357,75.225z"/>
		<path d="M170.571,80.741c0.093-0.513-0.037-1.167,0.425-1.531c0.076,0.731,0.061,1.47,0.039,2.204
			c-0.071-0.365-0.11-0.733-0.145-1.102C170.784,80.457,170.681,80.602,170.571,80.741z"/>
		<path fill="#686867" d="M128.019,84.828c0.557-0.574,0.805-1.357,1.174-2.051c-0.211,1.705-1.51,2.942-2.177,4.462
			c-0.503,1.286-1.434,2.336-2.069,3.554c-0.879,1.311-1.488,2.816-1.596,4.403c-0.191,1.446,0.113,2.929-0.238,4.356
			c0.227,0.031,0.458,0.062,0.688,0.101c-0.09,0.184-0.18,0.374-0.258,0.567c-0.438-0.133-0.896-0.08-1.338-0.01
			c-0.011,0.066-0.031,0.201-0.039,0.269c-0.482-0.14-0.942,0.117-1.379,0.282c-0.455-0.889-0.604-1.883-0.914-2.822
			c-0.271,0.041-0.67-0.126-0.803,0.205c-0.485,0.902-0.613,1.941-1.002,2.885c-0.207-0.367-0.164-1.068-0.686-1.117
			c-0.482,0.182-0.922,0.461-1.403,0.639c-0.061-1.121,0.445-2.174,0.409-3.295c-0.856-0.129-1.165,0.812-1.586,1.367
			c0.233-0.493,0.378-1.068,0.805-1.439c0.436-0.16,0.958-0.133,1.299-0.498c0.712-0.691,1.568-1.305,1.997-2.228
			c0.712-1.817,1.56-3.577,2.161-5.435c0.422-1.096,0.312-2.291,0.309-3.438c0.006-0.819-0.336-1.58-0.717-2.286
			c0.285,0.368,0.611,0.734,0.706,1.208c0.128,0.58,0.24,1.178,0.58,1.682c0.276-0.17,0.552-0.342,0.821-0.521
			c0.218,0.209,0.436,0.418,0.658,0.623c0.27-0.326,0.509-0.676,0.725-1.041c0.15,0.361,0.305,0.723,0.461,1.081
			c0.241-0.166,0.483-0.333,0.727-0.499c0.29,0.189,0.589,0.363,0.898,0.521c0.189-0.307,0.352-0.634,0.604-0.896
			C127.21,85.212,127.702,85.172,128.019,84.828z"/>
		<path fill="#686867" d="M96.482,83.389c0.979-0.002,1.964-0.043,2.944,0.045c0.198,0.021,0.42,0.038,0.567,0.197
			c0.139,0.795,0.078,1.608,0.167,2.408c0.062,1.166,0.252,2.426-0.32,3.502c-0.22,0.414-0.34,0.865-0.376,1.33
			c0.419-0.021,0.841-0.031,1.262-0.025c0.213-0.352,0.425-0.705,0.642-1.053c0.295,0.515,0.458,1.086,0.632,1.648
			c0.49-0.208,0.722-0.688,0.917-1.15c0.128,0.33,0.261,0.661,0.399,0.989c0.447-0.27,0.836-0.62,1.186-1.006
			c0.146,0.228,0.291,0.456,0.441,0.685c0.473-0.057,0.945,0.022,1.373,0.238c0.162-0.078,0.326-0.156,0.491-0.234
			c-0.459,0.795-0.928,1.588-1.252,2.449c-0.327,0.854-0.827,1.649-1.029,2.551c-0.091,0.321,0.177,0.566,0.353,0.799
			c-0.775-0.455-1.621-0.967-2.557-0.742c0.026,0.219,0.033,0.447,0.107,0.66c0.832,1.732,2.101,3.236,2.727,5.071
			c-0.075,0.126-0.148,0.254-0.22,0.383c-0.303-0.755-0.326-1.653-0.946-2.244c-0.264,0.194-0.637,0.313-0.744,0.655
			c-0.276,0.779-0.434,1.6-0.758,2.367c-0.207-0.275-0.387-0.578-0.657-0.793c-0.278,0.041-0.546,0.127-0.812,0.208
			c-0.161-0.405-0.381-0.781-0.548-1.184c0.041-0.554,0.258-1.075,0.394-1.612c-0.321-0.02-0.642-0.039-0.962-0.047
			c0.25-0.119,0.492-0.248,0.739-0.373c-0.188-1.715-0.325-3.539-1.271-5.033c-0.71-1.121-0.41-2.52-0.109-3.721
			c0.138-0.645,0.694-1.129,0.73-1.801c0.066-1.025-0.013-2.057,0.016-3.083c-0.019-0.621,0.031-1.308-0.331-1.845
			C98.646,83.312,97.536,83.602,96.482,83.389z"/>
		<path d="M71.357,88.488c0.008-0.739,0.175-1.469,0.544-2.111c-0.303,1.676-0.012,3.38-0.184,5.066
			c-0.066-1.012-0.089-2.027-0.062-3.04C71.582,88.426,71.432,88.467,71.357,88.488z"/>
		<path fill="#686867" d="M86.552,88.205c0.489,0.726,0.109,1.753,0.803,2.4c0.172-0.213,0.34-0.426,0.51-0.641
			c0.177,0.403,0.381,0.799,0.613,1.178c0.583-0.291,1.157-0.602,1.689-0.98c0.205,0.169,0.408,0.338,0.614,0.509
			c0.158-0.202,0.317-0.402,0.48-0.601c0.474,0.117,0.954,0.025,1.39-0.177c0.15,0.179,0.3,0.358,0.454,0.54
			c0.348-0.398,0.696-0.797,1.009-1.226c-0.206,0.665-0.432,1.333-0.493,2.032c-0.069,0.959,0.079,1.916,0.145,2.873
			c0.066,1.467,0.274,2.932,0.716,4.333c0.837-0.116,1.667-0.543,2.511-0.204c-0.988-0.105-2.101,0.146-2.688,1.015
			c0.287,0.291,0.574,0.581,0.864,0.871c-0.007,0.085-0.023,0.252-0.031,0.335c-0.167,0.019-0.332,0.039-0.498,0.059
			c-0.239-0.633-0.322-1.377-0.873-1.832c-0.617,0.861-0.68,1.948-1.099,2.895c-0.114,0.319-0.581,0.365-0.781,0.111
			c-0.342-0.394-0.524-0.891-0.807-1.319c-0.283-0.46-0.711-0.798-1.062-1.198c-0.29-0.314-0.396-0.736-0.53-1.13
			c-0.396,0.103-0.792,0.2-1.192,0.286c0.388-0.213,0.984-0.396,0.961-0.943c0.049-1.607-0.338-3.432-1.623-4.506
			c-0.135-0.275-0.272-0.551-0.412-0.824c-0.208,0.163-0.417,0.326-0.613,0.506c0.296-0.68,0.025-1.402,0.035-2.104
			C86.616,89.707,86.88,88.926,86.552,88.205z"/>
		<path d="M171.319,87.702c0.22-0.025,0.439-0.046,0.664-0.065c-0.075,0.2-0.147,0.405-0.22,0.609
			c-0.161-0.055-0.321-0.109-0.479-0.156C171.292,87.992,171.312,87.799,171.319,87.702z"/>
		<path d="M125.27,93.967c0.219,0.456,0.359,0.942,0.453,1.439c-0.066-0.023-0.2-0.064-0.267-0.084
			c-0.009,0.476-0.027,0.952-0.017,1.431C125.223,95.842,125.065,94.895,125.27,93.967z"/>
		<path d="M51.239,100.578c-0.054-0.642,0.038-1.279,0.208-1.895c0.011,0.125,0.035,0.368,0.046,0.492
			c0.116-0.012,0.349-0.035,0.464-0.045C51.801,99.645,51.764,100.287,51.239,100.578z"/>
		<path d="M158.334,100.145c0.29-0.466,0.595-0.93,0.968-1.332c0.11,0.24,0.223,0.48,0.334,0.725
			c0.158-0.006,0.318-0.01,0.482-0.013C159.554,99.813,158.933,99.955,158.334,100.145z"/>
		<path d="M125.699,101.604c0.155-0.228,0.591,0.002,0.402,0.249C125.943,102.078,125.51,101.847,125.699,101.604z"/>
		<path d="M162.693,106.5c0.444-0.562,1.255-1.406,1.978-0.777c-0.365,0.121-0.745,0.193-1.113,0.301
			c0.041,0.172,0.082,0.342,0.127,0.516C163.353,106.535,163.021,106.525,162.693,106.5z"/>
		<path d="M171.639,108.42c0.354,0,0.707,0.08,1.016,0.268c0.306,0.098,0.136,0.48,0.162,0.711c-0.21-0.039-0.412-0.082-0.615-0.125
			C172.237,108.895,171.819,108.705,171.639,108.42z"/>
		<path d="M176.446,111.777c0.26-0.017,0.521-0.028,0.787-0.033c-0.025,0.115-0.074,0.348-0.1,0.46
			C176.841,112.168,176.55,112.086,176.446,111.777z"/>
		<path d="M176.321,112.758c0.281-0.023,0.568-0.036,0.854-0.043c0.003,0.099,0.006,0.293,0.007,0.393
			C176.857,113.092,176.538,113.012,176.321,112.758z"/>
		<path d="M139.063,118.977c0.814-0.551,1.707-0.986,2.615-1.361C141.075,118.469,140.011,118.715,139.063,118.977z"/>
		<path fill="#F5F5F5" d="M109.841,125.332c0.629-0.478,1.493-0.742,2.265-0.502c0.024,0.071,0.075,0.217,0.101,0.289
			C111.415,125.171,110.632,125.288,109.841,125.332z"/>
		<path fill="#F5F5F5" d="M108.729,125.413c0.32-0.091,0.648-0.165,0.979-0.213C109.597,125.656,109.045,125.617,108.729,125.413z"
			/>
		<path d="M88.803,126.492c1.52-0.627,3.162-0.206,4.733-0.072c-0.706,0.011-1.409-0.033-2.114-0.042
			c-0.134,0.587-0.797,0.321-1.225,0.382c-0.004-0.047-0.01-0.142-0.016-0.188c0.309-0.016,0.619-0.035,0.93-0.054
			c-0.092-0.425-0.659-0.258-0.97-0.244c-0.46,0.229-0.952,0.37-1.469,0.257L88.803,126.492z"/>
		<path fill="#FFFFFF" d="M77.46,41.792c0.023,0.282,0.045,0.566,0.071,0.85c0.838,0.514,1.695-0.108,2.528-0.283
			C79.336,41.799,78.351,41.508,77.46,41.792z"/>
	</g>
	<g>
		<path d="M60.31,132.174l0.204-9.868l-3.3,6.151c-0.304,0.565-0.425,0.955-0.364,1.168c0.083,0.291,0.327,0.544,0.729,0.76
			l0.362,0.194l-0.136,0.251l-3.56-1.91l0.134-0.251l0.362,0.194c0.433,0.232,0.803,0.277,1.11,0.141
			c0.188-0.086,0.42-0.387,0.697-0.902l3.227-6.017c0.219-0.407,0.327-0.729,0.323-0.964c0-0.169-0.071-0.348-0.211-0.537
			c-0.142-0.189-0.421-0.396-0.839-0.62l0.135-0.252l2.897,1.554l-0.152,9.196l7.516-5.245l2.897,1.553l-0.135,0.252l-0.354-0.19
			c-0.438-0.234-0.811-0.282-1.117-0.146c-0.189,0.086-0.421,0.387-0.698,0.902l-3.227,6.018c-0.304,0.565-0.423,0.956-0.357,1.172
			c0.084,0.29,0.328,0.543,0.73,0.76l0.354,0.189l-0.134,0.251l-4.346-2.331l0.135-0.252l0.362,0.195
			c0.438,0.235,0.807,0.281,1.109,0.141c0.189-0.086,0.422-0.387,0.699-0.902l3.3-6.152l-8.102,5.632L60.31,132.174z"/>
		<path d="M79.248,135.999l-4.315-1.259l-1.218,1.363c-0.299,0.335-0.478,0.599-0.533,0.791c-0.045,0.154-0.003,0.312,0.125,0.474
			c0.128,0.163,0.455,0.34,0.982,0.531l-0.08,0.274l-3.51-1.023l0.081-0.273c0.486,0.062,0.815,0.054,0.988-0.025
			c0.348-0.154,0.797-0.546,1.349-1.172l6.327-7.113l0.288,0.084l1.447,9.477c0.117,0.761,0.274,1.279,0.47,1.553
			c0.197,0.274,0.519,0.49,0.967,0.646l-0.08,0.273l-4.398-1.281l0.08-0.273c0.45,0.109,0.769,0.131,0.958,0.062
			c0.189-0.068,0.308-0.183,0.355-0.346c0.064-0.218,0.054-0.592-0.029-1.124L79.248,135.999z M79.177,135.385l-0.709-4.605
			l-3.122,3.488L79.177,135.385z"/>
		<path d="M95.64,139.463l0.274,0.088l-1.333,2.691l-8.921-1.102l0.034-0.283l0.434,0.053c0.486,0.061,0.854-0.039,1.099-0.299
			c0.138-0.148,0.245-0.518,0.318-1.109l0.827-6.691c0.08-0.648,0.05-1.062-0.088-1.245c-0.193-0.251-0.508-0.404-0.945-0.459
			l-0.432-0.053l0.034-0.282l5.217,0.645l-0.035,0.282c-0.611-0.08-1.046-0.082-1.307-0.006c-0.259,0.076-0.444,0.19-0.555,0.343
			c-0.111,0.152-0.204,0.537-0.281,1.152l-0.805,6.516c-0.052,0.424-0.043,0.721,0.028,0.89c0.054,0.114,0.149,0.207,0.285,0.276
			c0.135,0.067,0.574,0.147,1.315,0.239l0.841,0.104c0.884,0.11,1.512,0.128,1.883,0.055c0.371-0.073,0.721-0.24,1.054-0.502
			C94.914,140.502,95.267,140.068,95.64,139.463z"/>
		<path d="M106.449,138.867l-4.491,0.132l-0.74,1.672c-0.183,0.411-0.271,0.716-0.265,0.916c0.005,0.16,0.094,0.297,0.265,0.413
			c0.173,0.115,0.538,0.183,1.1,0.202l0.008,0.285l-3.654,0.107l-0.009-0.284c0.483-0.092,0.792-0.201,0.933-0.328
			c0.283-0.256,0.59-0.766,0.922-1.529l3.829-8.717l0.3-0.009l4.295,8.569c0.345,0.689,0.654,1.133,0.926,1.334
			c0.271,0.199,0.644,0.305,1.118,0.316l0.01,0.285l-4.58,0.135l-0.008-0.284c0.462-0.035,0.771-0.112,0.931-0.235
			s0.236-0.27,0.231-0.439c-0.006-0.226-0.131-0.578-0.374-1.061L106.449,138.867z M106.192,138.304l-2.092-4.162l-1.896,4.278
			L106.192,138.304z"/>
		<path d="M118.521,130.389l3.986-0.707l0.051,0.279l-0.221,0.04c-0.145,0.026-0.349,0.122-0.609,0.288
			c-0.26,0.167-0.486,0.379-0.678,0.637c-0.191,0.26-0.412,0.663-0.662,1.213l-2.062,4.397l0.459,2.58
			c0.111,0.633,0.262,1.013,0.445,1.142c0.252,0.174,0.608,0.221,1.068,0.139l0.371-0.065l0.051,0.28l-4.855,0.863l-0.051-0.281
			l0.404-0.072c0.484-0.086,0.804-0.278,0.959-0.577c0.095-0.183,0.091-0.563-0.011-1.14l-0.433-2.437l-3.902-3.751
			c-0.461-0.439-0.769-0.711-0.922-0.814c-0.156-0.102-0.457-0.206-0.903-0.309c-0.121-0.031-0.29-0.027-0.503,0.01l-0.051-0.28
			l4.889-0.868l0.051,0.28l-0.252,0.046c-0.265,0.045-0.498,0.145-0.699,0.295c-0.203,0.151-0.285,0.339-0.244,0.561
			c0.031,0.182,0.262,0.48,0.689,0.895l2.974,2.893l1.679-3.57c0.254-0.535,0.359-0.92,0.317-1.152
			c-0.024-0.143-0.088-0.26-0.188-0.357c-0.103-0.098-0.234-0.163-0.397-0.199c-0.163-0.037-0.396-0.028-0.7,0.025L118.521,130.389z
			"/>
		<path d="M131.207,126.433l1.183,3.415l-0.3,0.104c-0.325-0.622-0.679-1.084-1.064-1.386c-0.386-0.301-0.85-0.486-1.392-0.554
			c-0.543-0.067-1.062-0.016-1.559,0.155c-0.561,0.195-0.972,0.51-1.232,0.945c-0.259,0.436-0.322,0.848-0.186,1.243
			c0.105,0.3,0.314,0.534,0.633,0.702c0.461,0.248,1.424,0.458,2.891,0.63c1.196,0.141,2.027,0.278,2.495,0.413
			c0.466,0.135,0.862,0.348,1.188,0.636c0.328,0.29,0.559,0.63,0.693,1.024c0.259,0.746,0.16,1.502-0.297,2.268
			c-0.457,0.764-1.193,1.321-2.207,1.672c-0.318,0.111-0.625,0.192-0.922,0.246c-0.174,0.034-0.552,0.064-1.131,0.094
			c-0.578,0.029-0.938,0.068-1.078,0.117c-0.135,0.047-0.229,0.12-0.283,0.22c-0.053,0.1-0.058,0.271-0.017,0.511l-0.299,0.104
			l-1.173-3.386l0.3-0.104c0.386,0.66,0.757,1.124,1.117,1.395c0.359,0.27,0.823,0.437,1.392,0.501s1.145-0.005,1.727-0.207
			c0.675-0.232,1.152-0.577,1.432-1.033c0.28-0.456,0.345-0.902,0.193-1.339c-0.084-0.242-0.242-0.462-0.477-0.658
			c-0.233-0.196-0.545-0.348-0.931-0.453c-0.261-0.072-0.943-0.183-2.045-0.332c-1.103-0.148-1.9-0.295-2.396-0.439
			c-0.492-0.144-0.9-0.35-1.225-0.618c-0.322-0.271-0.553-0.608-0.694-1.017c-0.245-0.709-0.155-1.424,0.272-2.145
			c0.426-0.721,1.106-1.243,2.039-1.566c0.584-0.201,1.246-0.287,1.988-0.256c0.343,0.018,0.577,0.005,0.7-0.037
			c0.141-0.049,0.243-0.127,0.306-0.232c0.062-0.106,0.082-0.283,0.057-0.529L131.207,126.433z"/>
		<path d="M143.218,132.303l0.125,0.257l-4.463,2.194l-0.127-0.257l0.369-0.183c0.43-0.209,0.687-0.477,0.771-0.798
			c0.051-0.208-0.062-0.594-0.34-1.155l-2.977-6.059c-0.232-0.475-0.42-0.772-0.562-0.892c-0.108-0.089-0.263-0.138-0.462-0.142
			c-0.279,0-0.541,0.06-0.789,0.182l-0.367,0.18l-0.127-0.255l4.465-2.194l0.125,0.256l-0.375,0.186
			c-0.426,0.209-0.681,0.475-0.765,0.795c-0.056,0.211,0.056,0.598,0.333,1.16l2.977,6.058c0.232,0.476,0.42,0.772,0.562,0.891
			c0.107,0.091,0.264,0.138,0.469,0.14c0.273,0.002,0.534-0.057,0.78-0.178L143.218,132.303z"/>
		<path d="M150.659,123.814l-3.68,2.584l0.305,1.803c0.074,0.443,0.169,0.746,0.283,0.91c0.092,0.131,0.242,0.197,0.449,0.199
			s0.549-0.143,1.027-0.436l0.164,0.233l-2.991,2.103l-0.163-0.234c0.352-0.342,0.551-0.604,0.597-0.787
			c0.097-0.369,0.072-0.964-0.071-1.785l-1.602-9.385l0.245-0.172l8.303,4.789c0.668,0.385,1.17,0.586,1.507,0.604
			c0.338,0.018,0.706-0.1,1.109-0.352l0.164,0.234l-3.749,2.633l-0.163-0.232c0.365-0.283,0.582-0.52,0.646-0.711
			c0.066-0.189,0.051-0.354-0.048-0.492c-0.13-0.185-0.429-0.411-0.896-0.68L150.659,123.814z M150.134,123.486l-4.038-2.323
			l0.774,4.616L150.134,123.486z"/>
	</g>
</g>
</svg>
